<svg width="44" height="44" viewBox="0 0 44 44" fill="none" xmlns="http://www.w3.org/2000/svg">
<g id="Frame 8">
<path id="Vector" d="M12.0001 11.6778L12.209 29.1202C12.22 30.0361 12.9994 30.77 13.9499 30.7594C14.3572 30.7549 14.7496 30.6113 15.0573 30.3542L19.4613 26.6757L23.9519 34.1705C24.4271 34.9637 25.4797 35.2355 26.3029 34.7775L28.1898 33.7278C29.013 33.2699 29.295 32.2556 28.8197 31.4624L24.3291 23.9675L29.8411 22.1304C30.7394 21.831 31.2157 20.8866 30.905 20.021C30.772 19.6505 30.5071 19.3374 30.1574 19.1372L14.6 10.2328C13.7828 9.76508 12.7268 10.0243 12.2413 10.8118C12.0799 11.0736 11.9965 11.3733 12.0001 11.6778Z" stroke="currentColor" stroke-width="2"/>
</g>
</svg>
