<svg width="44" height="44" viewBox="0 0 44 44" fill="none" xmlns="http://www.w3.org/2000/svg">
<g id="Frame 17">
<path id="Vector" d="M34.26 16.2094C33.3312 15.6032 32.1491 16.0362 31.8113 16.9887L30.207 20.539C30.0381 20.8854 29.7004 21.0586 29.3626 21.0586C28.7716 21.0586 28.3494 20.539 28.5183 19.9329L29.9537 12.8323C30.1226 11.8797 29.6159 11.0138 28.6871 10.754C27.7583 10.5808 26.9139 11.1004 26.6606 12.0529L25.0563 18.634C24.9719 19.0669 24.6341 19.3267 24.212 19.3267H24.1275C23.6209 19.3267 23.1987 18.8937 23.1987 18.3742V10.8406C23.1987 9.9747 22.6076 9.19536 21.8477 9.02218C20.75 8.84899 19.8212 9.71492 19.8212 10.754V18.4608C19.8212 18.9803 19.399 19.4133 18.8924 19.4133H18.808C18.3858 19.4133 18.048 19.1535 17.9636 18.7206L16.4437 12.1395C16.1904 11.1004 15.0927 10.4943 14.1639 10.9272C13.3195 11.187 12.9818 12.1395 13.1507 13.0054L15.2616 22.7904C15.4305 23.4832 14.6705 24.0893 13.995 23.7429L10.6176 21.4915C9.94206 21.0586 9.09768 21.1452 8.50662 21.7513C7.83113 22.4441 7.83113 23.5698 8.50662 24.2625L17.2037 33.2681C18.2169 34.3938 19.7368 35 21.3411 35H24.8875C27.3361 35 28.856 33.2681 29.8692 30.8435L34.851 18.4608C35.1888 17.6815 34.9355 16.7289 34.26 16.2094Z" stroke="currentColor" stroke-width="2"/>
</g>
</svg>
