<svg width="24" height="24" viewBox="0 0 24 24" fill="none" xmlns="http://www.w3.org/2000/svg">
<g id="Frame 110">
<path id="Vector" d="M13.155 12.675C13.155 12.8267 13.1251 12.9769 13.0671 13.117C13.0091 13.2572 12.924 13.3845 12.8167 13.4918C12.7095 13.599 12.5822 13.6841 12.442 13.7422C12.3019 13.8002 12.1517 13.8301 12 13.8301C11.8483 13.8301 11.6981 13.8002 11.558 13.7422C11.4178 13.6841 11.2905 13.599 11.1833 13.4918C11.076 13.3845 10.9909 13.2572 10.9329 13.117C10.8749 12.9769 10.845 12.8267 10.845 12.675V7.2901C10.845 7.13841 10.8749 6.9882 10.9329 6.84806C10.9909 6.70791 11.076 6.58057 11.1833 6.47331C11.2905 6.36604 11.4178 6.28095 11.558 6.2229C11.6981 6.16485 11.8483 6.13497 12 6.13497C12.1517 6.13497 12.3019 6.16485 12.442 6.2229C12.5822 6.28095 12.7095 6.36604 12.8167 6.47331C12.924 6.58057 13.0091 6.70791 13.0671 6.84806C13.1251 6.9882 13.155 7.13841 13.155 7.2901V12.675ZM12 17.6749C11.734 17.674 11.4765 17.581 11.2714 17.4116C11.0663 17.2422 10.9262 17.007 10.8751 16.7459C10.824 16.4849 10.8649 16.2142 10.991 15.98C11.1171 15.7457 11.3204 15.5624 11.5665 15.4613C11.8125 15.3602 12.086 15.3474 12.3403 15.4253C12.5947 15.5032 12.8142 15.6668 12.9614 15.8884C13.1086 16.1099 13.1745 16.3757 13.1478 16.6403C13.1211 16.905 13.0035 17.1522 12.815 17.3399C12.709 17.4482 12.5821 17.5337 12.442 17.5913C12.3019 17.6489 12.1515 17.6773 12 17.6749ZM12 2.0002C10.6621 1.99159 9.33653 2.25703 8.10508 2.78019C5.70133 3.78942 3.78942 5.70133 2.78019 8.10508C2.25703 9.33653 1.99159 10.6621 2.0002 12C1.99159 13.3379 2.25703 14.6635 2.78019 15.8949C3.78942 18.2987 5.70133 20.2106 8.10508 21.2198C9.33653 21.743 10.6621 22.0084 12 21.9998C13.3379 22.0084 14.6635 21.743 15.8949 21.2198C18.2987 20.2106 20.2106 18.2987 21.2198 15.8949C21.743 14.6635 22.0084 13.3379 21.9998 12C22.0084 10.6621 21.743 9.33653 21.2198 8.10508C20.2106 5.70133 18.2987 3.78942 15.8949 2.78019C14.6635 2.25703 13.3379 1.99159 12 2.0002Z" fill="#3382FF"/>
</g>
</svg>
