<svg width="36" height="36" viewBox="0 0 36 36" fill="none" xmlns="http://www.w3.org/2000/svg">
<g id="zoom-in">
<path id="Vector" d="M26.0855 24.8413C25.6886 24.4573 25.0555 24.4678 24.6715 24.8647C24.2875 25.2617 24.298 25.8947 24.6949 26.2787L26.0855 24.8413ZM29.9046 31.3187C30.3015 31.7027 30.9346 31.6923 31.3186 31.2953C31.7026 30.8984 31.6921 30.2653 31.2952 29.8813L29.9046 31.3187ZM16.0999 21.6C16.0999 22.1523 16.5476 22.6 17.0999 22.6C17.6522 22.6 18.0999 22.1523 18.0999 21.6H16.0999ZM18.0999 12.6C18.0999 12.0477 17.6522 11.6 17.0999 11.6C16.5476 11.6 16.0999 12.0477 16.0999 12.6H18.0999ZM12.5999 16.1C12.0476 16.1 11.5999 16.5477 11.5999 17.1C11.5999 17.6523 12.0476 18.1 12.5999 18.1V16.1ZM21.5999 18.1C22.1522 18.1 22.5999 17.6523 22.5999 17.1C22.5999 16.5477 22.1522 16.1 21.5999 16.1V18.1ZM27.9199 17.16C27.9199 23.1026 23.1025 27.92 17.1599 27.92V29.92C24.2071 29.92 29.9199 24.2072 29.9199 17.16H27.9199ZM17.1599 27.92C11.2173 27.92 6.3999 23.1026 6.3999 17.16H4.3999C4.3999 24.2072 10.1127 29.92 17.1599 29.92V27.92ZM6.3999 17.16C6.3999 11.2174 11.2173 6.40002 17.1599 6.40002V4.40002C10.1127 4.40002 4.3999 10.1129 4.3999 17.16H6.3999ZM17.1599 6.40002C23.1025 6.40002 27.9199 11.2174 27.9199 17.16H29.9199C29.9199 10.1129 24.2071 4.40002 17.1599 4.40002V6.40002ZM24.6949 26.2787L29.9046 31.3187L31.2952 29.8813L26.0855 24.8413L24.6949 26.2787ZM18.0999 21.6V17.1H16.0999V21.6H18.0999ZM18.0999 17.1V12.6H16.0999V17.1H18.0999ZM12.5999 18.1H17.0999V16.1H12.5999V18.1ZM17.0999 18.1H21.5999V16.1H17.0999V18.1Z" fill="currentColor"/>
</g>
</svg>
