<svg width="44" height="44" viewBox="0 0 44 44" fill="none" xmlns="http://www.w3.org/2000/svg">
<g id="Frame 16">
<path id="Vector" d="M15.3653 16.568L19.3345 30.6913C19.543 31.4328 20.3465 31.8565 21.1292 31.6376C21.4646 31.5438 21.7575 31.3403 21.9557 31.0633L24.7925 27.1004L30.133 32.195C30.6982 32.7342 31.6267 32.722 32.207 32.1678L33.5369 30.8975C34.1172 30.3432 34.1293 29.4569 33.5641 28.9177L28.2237 23.8231L32.3764 21.1108C33.0532 20.6688 33.2411 19.7961 32.796 19.1617C32.6056 18.8902 32.3186 18.6945 31.9862 18.6093L17.1982 14.8188C16.4214 14.6197 15.6056 15.0639 15.376 15.8111C15.2997 16.0596 15.296 16.3214 15.3653 16.568Z" stroke="currentColor" stroke-width="2"/>
<path id="Vector 20" d="M6 14H34" stroke="currentColor" stroke-width="2" stroke-dasharray="3 2"/>
<path id="Vector 21" d="M15 5L15 39" stroke="currentColor" stroke-width="2" stroke-dasharray="3 2"/>
</g>
</svg>
