<svg width="160" height="27" viewBox="0 0 160 27" fill="none" xmlns="http://www.w3.org/2000/svg">
<g id="Frame" clip-path="url(#clip0_3452_29163)">
<g id="Group">
<path id="Vector" d="M50.0771 2.4911H55.485L58.8859 19.9737H59.0905L62.696 4.77454H68.6817L72.0827 19.9737H72.2863L75.7558 2.4911H81.0951L75.6873 26.1415H69.225L65.5857 11.1473H65.3812L61.6743 26.1415H55.212L50.0771 2.4911Z" fill="#242360"/>
<path id="Vector_2" d="M99.5289 15.4754C99.5289 15.9978 99.5116 16.4927 99.4778 16.9575C99.444 17.4231 99.4038 17.7808 99.3591 18.0306L87.5236 18.7807C87.614 20.099 88.0559 21.0642 88.8502 21.6771C89.6437 22.291 90.8571 22.5975 92.4895 22.5975C93.0556 22.5975 93.6345 22.5581 94.2243 22.4785C94.8141 22.3989 95.3811 22.3029 95.9243 22.1885C96.4685 22.0751 96.9724 21.9388 97.4381 21.7796C97.9028 21.6204 98.2826 21.4612 98.5775 21.302V25.1874C98.3054 25.3465 97.9366 25.5057 97.4719 25.6649C97.0071 25.8241 96.4685 25.9604 95.8567 26.0738C95.2441 26.1873 94.5694 26.2843 93.8335 26.3638C93.0967 26.4434 92.3307 26.4828 91.5382 26.4828C90.1321 26.4828 88.874 26.3346 87.7628 26.04C86.6517 25.7454 85.7158 25.234 84.9571 24.5067C84.1975 23.7803 83.6141 22.8024 83.206 21.5756C82.7978 20.3488 82.5942 18.8036 82.5942 16.941C82.5942 15.0784 82.7978 13.5332 83.206 12.3064C83.6141 11.0796 84.2039 10.1026 84.9745 9.37528C85.7451 8.6489 86.6973 8.13751 87.8313 7.8411C88.9644 7.54652 90.2462 7.39832 91.6742 7.39832C93.261 7.39832 94.5648 7.59775 95.5856 7.99479C96.6063 8.39275 97.4107 8.94897 98.0005 9.66437C98.5903 10.3798 98.992 11.2315 99.2075 12.2204C99.4212 13.2094 99.5289 14.2944 99.5289 15.4754ZM95.0396 14.76C95.0396 14.2605 94.9994 13.7885 94.9209 13.3457C94.8415 12.9029 94.6826 12.5168 94.4452 12.1866C94.2069 11.8572 93.8673 11.5965 93.4245 11.4026C92.9826 11.2095 92.3982 11.1126 91.6733 11.1126C90.9018 11.1126 90.2618 11.1976 89.7514 11.3687C89.241 11.5389 88.8274 11.795 88.5097 12.1354C88.1919 12.4766 87.9537 12.9139 87.7957 13.4472C87.6368 13.9815 87.5464 14.6118 87.5236 15.3382L95.0396 14.76Z" fill="#242360"/>
<path id="Vector_3" d="M105.855 5.18348C105.311 5.18348 104.857 5.15512 104.495 5.0984C104.132 5.04168 103.848 4.92275 103.645 4.7407C103.44 4.55956 103.299 4.29792 103.219 3.9576C103.14 3.61636 103.101 3.15162 103.101 2.56064C103.101 1.99344 103.14 1.53785 103.219 1.19753C103.299 0.857208 103.44 0.595564 103.645 0.414425C103.849 0.232373 104.132 0.119847 104.495 0.0731906C104.857 0.0274486 105.311 0.00457764 105.855 0.00457764C106.421 0.00457764 106.88 0.0274486 107.233 0.0731906C107.584 0.118933 107.862 0.232373 108.066 0.414425C108.271 0.596478 108.412 0.857208 108.492 1.19753C108.571 1.53876 108.611 1.99344 108.611 2.56064C108.611 3.15162 108.57 3.61728 108.492 3.9576C108.413 4.29792 108.271 4.55956 108.066 4.7407C107.862 4.92275 107.584 5.0426 107.233 5.0984C106.88 5.15512 106.421 5.18348 105.855 5.18348ZM103.373 7.73954H108.304V26.1424H103.373V7.73954Z" fill="#242360"/>
<path id="Vector_4" d="M111.297 7.73953H116.535L119.425 21.0303H119.63L122.861 7.73953H128.439L131.67 21.0303H131.874L134.764 7.73953H139.934L134.9 26.1424H128.71L125.683 13.5671H125.48L122.453 26.1424H116.263L111.297 7.73953Z" fill="#242360"/>
<path id="Vector_5" d="M151.021 26.4828C149.593 26.4828 148.318 26.3346 147.195 26.04C146.073 25.7454 145.131 25.234 144.372 24.5067C143.612 23.7803 143.029 22.8024 142.621 21.5756C142.212 20.3488 142.009 18.8036 142.009 16.941C142.009 15.0784 142.212 13.5332 142.621 12.3064C143.029 11.0796 143.612 10.1026 144.372 9.37528C145.131 8.6489 146.073 8.13751 147.195 7.8411C148.317 7.54652 149.592 7.39832 151.021 7.39832C152.45 7.39832 153.719 7.54652 154.83 7.8411C155.941 8.13659 156.876 8.64799 157.636 9.37528C158.396 10.1026 158.979 11.0787 159.388 12.3064C159.796 13.5332 160.001 15.0784 160.001 16.941C160.001 18.8036 159.796 20.3488 159.388 21.5756C158.98 22.8024 158.396 23.7794 157.636 24.5067C156.876 25.234 155.941 25.7454 154.83 26.04C153.719 26.3346 152.45 26.4828 151.021 26.4828ZM151.021 22.7338C151.77 22.7338 152.399 22.6432 152.908 22.4611C153.419 22.28 153.827 21.9671 154.133 21.5243C154.439 21.0816 154.654 20.4851 154.779 19.7358C154.903 18.9857 154.966 18.0544 154.966 16.941C154.966 15.8286 154.898 14.8963 154.762 14.1471C154.626 13.3969 154.405 12.7959 154.099 12.3403C153.793 11.8856 153.39 11.5627 152.892 11.3696C152.393 11.1766 151.77 11.0796 151.021 11.0796C150.273 11.0796 149.643 11.1766 149.134 11.3696C148.624 11.5627 148.215 11.8865 147.91 12.3403C147.604 12.795 147.387 13.3969 147.263 14.1471C147.138 14.8963 147.076 15.8286 147.076 16.941C147.076 18.0544 147.145 18.9857 147.281 19.7358C147.417 20.4851 147.638 21.0816 147.943 21.5243C148.249 21.9671 148.652 22.28 149.15 22.4611C149.649 22.6432 150.273 22.7338 151.021 22.7338Z" fill="#242360"/>
</g>
<path id="Vector_6" d="M13.3264 5.46433H9.09457L11.0183 9.08069C11.0594 9.17218 11.1069 9.26 11.1589 9.34417L11.6154 10.2032L14.6275 15.8651L15.9039 18.2638L15.9614 18.3718C16.112 18.6517 16.2892 18.9143 16.4891 19.1586C17.3811 20.2518 18.7214 20.9617 20.2297 21.0056L18.8748 23.8489L18.0339 25.6118L17.7765 26.1516C14.9315 25.4234 12.5522 23.5278 11.1753 21.0056L11.042 20.755L2.90705 5.46433L0 0H13.3264C16.8534 0 19.8454 2.29533 20.8944 5.47714C21.1555 6.26573 21.2961 7.10921 21.2961 7.98563C21.2961 9.03129 21.0953 10.0303 20.731 10.9451C20.3548 11.8902 19.8034 12.7455 19.1159 13.4719L18.0668 11.4986L15.4985 6.67101C15.4957 6.67192 15.4939 6.67284 15.4912 6.67466C15.0429 5.94828 14.2413 5.46433 13.3264 5.46433Z" fill="#50D5FF"/>
<path id="Vector_7" d="M44.5989 4.99137C44.5989 5.71775 44.4428 6.40662 44.1625 7.0278L44.1606 7.03054L44.0757 7.21077L36.3069 23.5031L36.1608 23.8105C35.3372 25.3959 33.6829 26.4782 31.7765 26.4782H28.5718L28.9845 25.6118L33.1926 16.7864L36.8693 9.07521L41.0774 0.249756C43.1143 0.859953 44.5989 2.75184 44.5989 4.99137Z" fill="#3382FF"/>
<path id="Vector_8" d="M33.6464 4.99137C33.6464 5.75983 33.4721 6.48621 33.1607 7.13483L33.1589 7.13758L30.4116 12.9001L25.3499 23.5159L25.348 23.5205L25.2239 23.7822L25.2166 23.7959C25.1207 23.9825 25.0129 24.1618 24.8943 24.3338V24.3347C24.1775 25.3776 23.071 26.1306 21.7854 26.3849C21.7827 26.3849 21.78 26.3858 21.7772 26.3858C21.4084 26.4343 21.0322 26.4654 20.6515 26.4745C20.6505 26.4754 20.6487 26.4754 20.6478 26.4745H20.6469C20.5583 26.4773 20.4707 26.4782 20.3812 26.4782C20.3447 26.4782 20.3082 26.4782 20.2726 26.4764C19.4116 26.469 18.5753 26.3565 17.7764 26.1516L18.0338 25.6118L18.8747 23.8489L20.2296 21.0056L21.5983 18.1367L22.2419 16.7864L24.1949 12.6897L25.9177 9.07612L26.6472 7.54651L30.1258 0.250671C32.1628 0.860869 33.6464 2.75276 33.6464 4.99137Z" fill="#3382FF"/>
</g>
<defs>
<clipPath id="clip0_3452_29163">
<rect width="160" height="26.4828" fill="white"/>
</clipPath>
</defs>
</svg>
