<svg width="20" height="20" viewBox="0 0 20 20" fill="none" xmlns="http://www.w3.org/2000/svg">
<g id="Frame 94">
<path id="Vector" d="M18.3293 0H1.67073C0.747479 0 0 0.748071 0 1.67073V18.3293C0 19.2525 0.747889 20 1.67073 20H18.3293C19.2525 20 20 19.2519 20 18.3293V1.67073C20 0.747479 19.2521 0 18.3293 0ZM15.8334 3.75001C16.7537 3.75001 17.5 4.49626 17.5 5.41669C17.5 6.33707 16.7538 7.08337 15.8334 7.08337C14.9129 7.08337 14.1667 6.3371 14.1667 5.41669C14.1667 4.49626 14.9129 3.75001 15.8334 3.75001ZM17.3617 14.8615C17.1175 15.1054 16.7236 15.1076 16.4795 14.8635L13.2512 11.6354L11.1112 13.7755L12.7144 15.3788C12.959 15.623 12.9606 16.0173 12.7148 16.263C12.4707 16.5072 12.0764 16.5084 11.8306 16.2626L6.06038 10.4928L3.82448 12.7289C3.58115 12.9722 3.18768 12.9732 2.94192 12.7275C2.69775 12.4833 2.70021 12.0854 2.94069 11.8449L5.5949 9.19068C5.7247 9.06088 5.89722 8.99984 6.0673 9.00881C6.2329 9.00391 6.40057 9.06475 6.52833 9.1923L10.2271 12.8916L12.6782 10.4407C12.8337 10.285 13.051 10.2285 13.2515 10.2722C13.4513 10.2285 13.6678 10.284 13.824 10.4399L17.3633 13.9795C17.6066 14.2224 17.6074 14.6155 17.3617 14.8615Z" fill="#3382FF"/>
</g>
</svg>
