<svg width="44" height="44" viewBox="0 0 44 44" fill="none" xmlns="http://www.w3.org/2000/svg">
<g clip-path="url(#clip0_3669_34515)">
<path d="M31.4318 28.0632V15.9369M28.0634 31.4316H16.6107M12.5686 27.7263V16.2737M15.937 12.5684H27.7265M10.5476 15.9369H14.5897C15.3338 15.9369 15.937 15.3336 15.937 14.5895V10.5474C15.937 9.80325 15.3338 9.20001 14.5897 9.20001H10.5476C9.80343 9.20001 9.2002 9.80325 9.2002 10.5474V14.5895C9.2002 15.3336 9.80343 15.9369 10.5476 15.9369ZM29.4107 15.9369H33.4528C34.197 15.9369 34.8002 15.3336 34.8002 14.5895V10.5474C34.8002 9.80325 34.197 9.20001 33.4528 9.20001H29.4107C28.6666 9.20001 28.0634 9.80325 28.0634 10.5474V14.5895C28.0634 15.3336 28.6666 15.9369 29.4107 15.9369ZM10.5476 34.8H14.5897C15.3338 34.8 15.937 34.1968 15.937 33.4526V29.4105C15.937 28.6664 15.3338 28.0632 14.5897 28.0632H10.5476C9.80343 28.0632 9.2002 28.6664 9.2002 29.4105V33.4526C9.2002 34.1968 9.80343 34.8 10.5476 34.8ZM29.4107 34.8H33.4528C34.197 34.8 34.8002 34.1968 34.8002 33.4526V29.4105C34.8002 28.6664 34.197 28.0632 33.4528 28.0632H29.4107C28.6666 28.0632 28.0634 28.6664 28.0634 29.4105V33.4526C28.0634 34.1968 28.6666 34.8 29.4107 34.8Z" stroke="currentColor" stroke-width="2" stroke-linecap="round"/>
</g>
<defs>
<clipPath id="clip0_3669_34515">
<rect width="44" height="44" rx="4" fill="white"/>
</clipPath>
</defs>
</svg>
