<svg width="14" height="14" viewBox="0 0 14 14" fill="none" xmlns="http://www.w3.org/2000/svg">
<g id="save-02">
<path id="Icon" d="M3.8499 11.9V8.74999C3.8499 8.36339 4.1633 8.04999 4.5499 8.04999H9.4499C9.8365 8.04999 10.1499 8.36339 10.1499 8.74999V12.25M10.1499 2.09999V3.49999C10.1499 3.88659 9.8365 4.19999 9.4499 4.19999L4.5499 4.19999C4.1633 4.19999 3.8499 3.88659 3.8499 3.49999L3.8499 1.39999M12.2484 3.84852L10.1514 1.75147C9.92634 1.52642 9.62111 1.4 9.30285 1.39999H2.5999C1.93715 1.39999 1.3999 1.93724 1.3999 2.59999V11.4C1.3999 12.0627 1.93715 12.6 2.5999 12.6H11.3999C12.0627 12.6 12.5999 12.0627 12.5999 11.4V4.69704C12.5999 4.37878 12.4735 4.07356 12.2484 3.84852Z" stroke="#F7F8FA" stroke-width="1.2" stroke-linecap="round"/>
</g>
</svg>
