<svg xmlns="http://www.w3.org/2000/svg" width="160" height="27" viewBox="0 0 160 27" fill="none">
  <g clip-path="url(#clip0_9923_36437)">
    <path d="M50.0771 2.49121H55.485L58.8859 19.9738H59.0905L62.696 4.77465H68.6817L72.0827 19.9738H72.2863L75.7558 2.49121H81.0951L75.6873 26.1416H69.225L65.5857 11.1474H65.3812L61.6743 26.1416H55.212L50.0771 2.49121Z" fill="white"/>
    <path d="M99.5289 15.4756C99.5289 15.9979 99.5116 16.4929 99.4778 16.9576C99.444 17.4232 99.4038 17.7809 99.3591 18.0307L87.5236 18.7809C87.614 20.0991 88.0559 21.0643 88.8502 21.6772C89.6437 22.2911 90.8571 22.5976 92.4895 22.5976C93.0556 22.5976 93.6345 22.5582 94.2243 22.4786C94.8141 22.3991 95.3811 22.303 95.9243 22.1886C96.4685 22.0752 96.9724 21.9389 97.4381 21.7797C97.9028 21.6205 98.2826 21.4613 98.5775 21.3022V25.1875C98.3054 25.3467 97.9366 25.5058 97.4719 25.665C97.0071 25.8242 96.4685 25.9605 95.8567 26.074C95.2441 26.1874 94.5694 26.2844 93.8335 26.364C93.0967 26.4436 92.3307 26.4829 91.5382 26.4829C90.1321 26.4829 88.874 26.3347 87.7628 26.0401C86.6517 25.7455 85.7158 25.2341 84.9571 24.5068C84.1975 23.7805 83.6141 22.8025 83.206 21.5757C82.7978 20.3489 82.5942 18.8037 82.5942 16.9411C82.5942 15.0785 82.7978 13.5333 83.206 12.3065C83.6141 11.0798 84.2039 10.1027 84.9745 9.3754C85.7451 8.64902 86.6973 8.13763 87.8313 7.84122C88.9644 7.54664 90.2462 7.39844 91.6742 7.39844C93.261 7.39844 94.5648 7.59787 95.5856 7.99491C96.6063 8.39287 97.4107 8.94909 98.0005 9.66449C98.5903 10.3799 98.992 11.2316 99.2075 12.2206C99.4212 13.2095 99.5289 14.2945 99.5289 15.4756ZM95.0396 14.7601C95.0396 14.2606 94.9994 13.7886 94.9209 13.3458C94.8415 12.903 94.6826 12.517 94.4452 12.1867C94.2069 11.8574 93.8673 11.5966 93.4245 11.4027C92.9826 11.2097 92.3982 11.1127 91.6733 11.1127C90.9018 11.1127 90.2618 11.1978 89.7514 11.3688C89.241 11.539 88.8274 11.7952 88.5097 12.1355C88.1919 12.4767 87.9537 12.914 87.7957 13.4474C87.6368 13.9816 87.5464 14.6119 87.5236 15.3383L95.0396 14.7601Z" fill="white"/>
    <path d="M105.855 5.18354C105.311 5.18354 104.857 5.15518 104.495 5.09846C104.132 5.04174 103.848 4.92281 103.645 4.74076C103.44 4.55962 103.299 4.29798 103.219 3.95766C103.14 3.61642 103.101 3.15168 103.101 2.5607C103.101 1.9935 103.14 1.53791 103.219 1.19759C103.299 0.857269 103.44 0.595625 103.645 0.414487C103.849 0.232434 104.132 0.119908 104.495 0.0732516C104.857 0.0275096 105.311 0.00463867 105.855 0.00463867C106.421 0.00463867 106.881 0.0275096 107.233 0.0732516C107.585 0.118994 107.862 0.232434 108.067 0.414487C108.271 0.596539 108.412 0.857269 108.492 1.19759C108.572 1.53882 108.611 1.9935 108.611 2.5607C108.611 3.15168 108.571 3.61734 108.492 3.95766C108.413 4.29798 108.271 4.55962 108.067 4.74076C107.862 4.92281 107.585 5.04266 107.233 5.09846C106.881 5.15518 106.421 5.18354 105.855 5.18354ZM103.373 7.7396H108.304V26.1425H103.373V7.7396Z" fill="white"/>
    <path d="M111.297 7.7395H116.535L119.425 21.0303H119.63L122.861 7.7395H128.439L131.67 21.0303H131.874L134.764 7.7395H139.934L134.9 26.1424H128.71L125.683 13.567H125.48L122.453 26.1424H116.263L111.297 7.7395Z" fill="white"/>
    <path d="M151.021 26.4829C149.593 26.4829 148.318 26.3347 147.195 26.0401C146.073 25.7455 145.131 25.2341 144.372 24.5068C143.612 23.7805 143.029 22.8025 142.621 21.5757C142.213 20.3489 142.009 18.8037 142.009 16.9411C142.009 15.0785 142.213 13.5333 142.621 12.3065C143.029 11.0798 143.612 10.1027 144.372 9.3754C145.131 8.64902 146.073 8.13763 147.195 7.84122C148.317 7.54664 149.592 7.39844 151.021 7.39844C152.45 7.39844 153.719 7.54664 154.83 7.84122C155.941 8.13671 156.876 8.64811 157.636 9.3754C158.396 10.1027 158.979 11.0788 159.388 12.3065C159.796 13.5333 160.001 15.0785 160.001 16.9411C160.001 18.8037 159.796 20.3489 159.388 21.5757C158.98 22.8025 158.396 23.7795 157.636 24.5068C156.876 25.2341 155.941 25.7455 154.83 26.0401C153.719 26.3347 152.45 26.4829 151.021 26.4829ZM151.021 22.7339C151.77 22.7339 152.399 22.6433 152.909 22.4613C153.419 22.2801 153.827 21.9672 154.133 21.5245C154.439 21.0817 154.654 20.4852 154.779 19.736C154.903 18.9858 154.966 18.0545 154.966 16.9411C154.966 15.8287 154.898 14.8965 154.762 14.1472C154.626 13.397 154.405 12.796 154.099 12.3404C153.793 11.8857 153.391 11.5628 152.892 11.3698C152.393 11.1767 151.77 11.0797 151.021 11.0797C150.274 11.0797 149.644 11.1767 149.134 11.3698C148.624 11.5628 148.216 11.8866 147.91 12.3404C147.604 12.7951 147.388 13.397 147.263 14.1472C147.138 14.8965 147.076 15.8287 147.076 16.9411C147.076 18.0545 147.145 18.9858 147.281 19.736C147.417 20.4852 147.638 21.0817 147.944 21.5245C148.249 21.9672 148.652 22.2801 149.151 22.4613C149.649 22.6433 150.274 22.7339 151.021 22.7339Z" fill="white"/>
    <path d="M13.3264 5.46433H9.09457L11.0183 9.08069C11.0594 9.17218 11.1069 9.26 11.1589 9.34417L11.6154 10.2032L14.6275 15.8651L15.9039 18.2638L15.9614 18.3718C16.112 18.6517 16.2892 18.9143 16.4891 19.1586C17.3811 20.2518 18.7214 20.9617 20.2297 21.0056L18.8748 23.8489L18.0339 25.6118L17.7765 26.1516C14.9315 25.4234 12.5522 23.5278 11.1753 21.0056L11.042 20.755L2.90705 5.46433L0 0H13.3264C16.8534 0 19.8454 2.29533 20.8944 5.47714C21.1555 6.26573 21.2961 7.10921 21.2961 7.98563C21.2961 9.03129 21.0953 10.0303 20.731 10.9451C20.3548 11.8902 19.8034 12.7455 19.1159 13.4719L18.0668 11.4986L15.4985 6.67101C15.4957 6.67192 15.4939 6.67284 15.4912 6.67466C15.0429 5.94828 14.2413 5.46433 13.3264 5.46433Z" fill="#50D5FF"/>
    <path d="M44.5991 4.99137C44.5991 5.71775 44.443 6.40662 44.1627 7.0278L44.1609 7.03054L44.076 7.21077L36.3071 23.5031L36.161 23.8105C35.3375 25.3959 33.6831 26.4782 31.7767 26.4782H28.572L28.9847 25.6118L33.1928 16.7864L36.8695 9.07521L41.0776 0.249756C43.1146 0.859953 44.5991 2.75184 44.5991 4.99137Z" fill="#3382FF"/>
    <path d="M33.6466 4.99143C33.6466 5.75989 33.4722 6.48627 33.1608 7.1349L33.159 7.13764L30.4117 12.9002L25.35 23.516L25.3481 23.5206L25.224 23.7822L25.2167 23.7959C25.1208 23.9826 25.0131 24.1619 24.8944 24.3339V24.3348C24.1777 25.3777 23.0711 26.1306 21.7856 26.3849C21.7828 26.3849 21.7801 26.3859 21.7773 26.3859C21.4085 26.4343 21.0323 26.4654 20.6516 26.4746C20.6507 26.4755 20.6488 26.4755 20.6479 26.4746H20.647C20.5585 26.4773 20.4708 26.4783 20.3813 26.4783C20.3448 26.4783 20.3083 26.4783 20.2727 26.4764C19.4117 26.4691 18.5754 26.3566 17.7765 26.1517L18.034 25.6119L18.8748 23.849L20.2298 21.0057L21.5984 18.1367L22.2421 16.7864L24.195 12.6898L25.9179 9.07618L26.6474 7.54657L30.126 0.250732C32.1629 0.86093 33.6466 2.75282 33.6466 4.99143Z" fill="#3382FF"/>
  </g>
  <defs>
    <clipPath id="clip0_9923_36437">
      <rect width="160" height="26.4828" fill="white"/>
    </clipPath>
  </defs>
</svg>