<svg width="20" height="20" viewBox="0 0 20 20" fill="none" xmlns="http://www.w3.org/2000/svg">
<mask id="mask0_35_56" style="mask-type:luminance" maskUnits="userSpaceOnUse" x="0" y="0" width="20" height="20">
<path d="M20 0H0V20H20V0Z" fill="white"/>
</mask>
<g mask="url(#mask0_35_56)">
<path d="M17.1419 -0.00469971H2.85353C1.27502 -0.00469971 -0.00463867 1.27497 -0.00463867 2.85348V17.1418C-0.00463867 18.7204 1.27502 20 2.85353 20H17.1419C18.7204 20 20.0001 18.7204 20.0001 17.1418V2.85348C20.0001 1.27497 18.7204 -0.00469971 17.1419 -0.00469971ZM18.5723 17.1456C18.573 17.9345 17.9327 18.5739 17.1439 18.5722H2.85685C2.47474 18.5722 2.11392 18.4254 1.84371 18.1552C1.57348 17.8849 1.42311 17.5278 1.42311 17.1456V2.85483C1.42453 2.06392 2.06592 1.42339 2.85685 1.42304H17.1439C17.9337 1.42384 18.5734 2.06495 18.5723 2.85483V17.1456Z" fill="#4086FF"/>
<path d="M16.2526 6.42438H10.5362C10.142 6.42438 9.82236 6.744 9.82236 7.13827C9.82236 7.53253 10.142 7.85212 10.5362 7.85212H16.2526C16.6468 7.85212 16.9665 7.53253 16.9665 7.13827C16.9665 6.744 16.6468 6.42438 16.2526 6.42438ZM16.2526 12.1435H10.5362C10.142 12.1435 9.82236 12.4631 9.82236 12.8573C9.82236 13.2516 10.142 13.5712 10.5362 13.5712H16.2526C16.6468 13.5712 16.9665 13.2516 16.9665 12.8573C16.9665 12.4631 16.6468 12.1435 16.2526 12.1435ZM6.24901 10.3577C4.86781 10.3577 3.74843 11.4773 3.74843 12.8582C3.74843 14.2391 4.86813 15.3588 6.24901 15.3588C7.6299 15.3588 8.74961 14.2391 8.74961 12.8582C8.74961 11.4773 7.63023 10.3577 6.24901 10.3577ZM7.00783 13.6174C6.50882 14.1159 5.67273 14.0055 5.32028 13.3945C4.96782 12.7835 5.29081 12.0044 5.97219 11.822C6.65346 11.6396 7.32242 12.1531 7.32242 12.8586C7.32314 13.1434 7.20986 13.4166 7.00783 13.6174ZM7.88787 5.20838L5.53442 7.56175L4.61017 6.63743C4.33142 6.3584 3.87921 6.35829 3.60033 6.63717C3.32144 6.91606 3.32155 7.36827 3.60058 7.64701L5.02961 9.07615C5.3084 9.35493 5.76043 9.35493 6.03922 9.07615L8.89738 6.21797C9.17296 5.93865 9.17146 5.4893 8.89402 5.21183C8.61657 4.93436 8.16721 4.93282 7.88787 5.20838Z" fill="#4086FF"/>
</g>
</svg>
