<svg width="128" height="128" viewBox="0 0 128 128" fill="none" xmlns="http://www.w3.org/2000/svg">
<g id="Frame 87" clip-path="url(#clip0_764_2112)">
<circle id="Ellipse 12" cx="64" cy="64" r="64" fill="url(#paint0_radial_764_2112)"/>
<path id="Rectangle 13" d="M30 34C30 29.5817 33.5817 26 38 26H82C86.4183 26 90 29.5817 90 34V78C90 82.4183 86.4183 86 82 86H38C33.5817 86 30 82.4183 30 78V34Z" fill="#3382FF"/>
<rect id="Rectangle 15" x="40" y="35" width="26" height="4" rx="2" fill="url(#paint1_linear_764_2112)"/>
<rect id="Rectangle 16" x="40" y="44" width="16" height="4" rx="2" fill="url(#paint2_linear_764_2112)"/>
<rect id="Rectangle 18" x="40" y="53" width="16" height="4" rx="2" fill="url(#paint3_linear_764_2112)"/>
<path id="Rectangle 17" d="M55 70C55 65.5817 58.5817 62 63 62H95C99.4183 62 103 65.5817 103 70V94C103 98.4183 99.4183 102 95 102H63C58.5817 102 55 98.4183 55 94V70Z" fill="#50D5FF"/>
<path id="Vector 3" d="M73 81.5L79.5 75M79.5 75V89M79.5 75L86 81.5" stroke="url(#paint4_linear_764_2112)" stroke-width="4" stroke-linecap="round" stroke-linejoin="round"/>
<circle id="Ellipse 13" cx="13" cy="26" r="8" fill="url(#paint5_radial_764_2112)"/>
<circle id="Ellipse 14" cx="112" cy="51" r="5" fill="url(#paint6_radial_764_2112)"/>
</g>
<defs>
<radialGradient id="paint0_radial_764_2112" cx="0" cy="0" r="1" gradientUnits="userSpaceOnUse" gradientTransform="translate(64 64) rotate(90) scale(64)">
<stop stop-color="#3382FF" stop-opacity="0"/>
<stop offset="1" stop-color="#3382FF" stop-opacity="0.2"/>
</radialGradient>
<linearGradient id="paint1_linear_764_2112" x1="40" y1="35" x2="65.6121" y2="36.8811" gradientUnits="userSpaceOnUse">
<stop stop-color="white"/>
<stop offset="1" stop-color="#DBE9FF"/>
</linearGradient>
<linearGradient id="paint2_linear_764_2112" x1="40" y1="44" x2="55.814" y2="44.7148" gradientUnits="userSpaceOnUse">
<stop stop-color="white"/>
<stop offset="1" stop-color="#DBE9FF"/>
</linearGradient>
<linearGradient id="paint3_linear_764_2112" x1="40" y1="53" x2="55.814" y2="53.7148" gradientUnits="userSpaceOnUse">
<stop stop-color="white"/>
<stop offset="1" stop-color="#DBE9FF"/>
</linearGradient>
<linearGradient id="paint4_linear_764_2112" x1="73" y1="58.6364" x2="95.7584" y2="58.9976" gradientUnits="userSpaceOnUse">
<stop stop-color="white"/>
<stop offset="1" stop-color="#DBE9FF"/>
</linearGradient>
<radialGradient id="paint5_radial_764_2112" cx="0" cy="0" r="1" gradientUnits="userSpaceOnUse" gradientTransform="translate(11 23.3333) rotate(79.3803) scale(10.8525)">
<stop stop-color="#A0C5FF"/>
<stop offset="1" stop-color="#3382FF"/>
</radialGradient>
<radialGradient id="paint6_radial_764_2112" cx="0" cy="0" r="1" gradientUnits="userSpaceOnUse" gradientTransform="translate(110.75 49.3333) rotate(79.3803) scale(6.78284)">
<stop stop-color="#A9EAFF"/>
<stop offset="1" stop-color="#50D5FF"/>
</radialGradient>
<clipPath id="clip0_764_2112">
<rect width="128" height="128" fill="white"/>
</clipPath>
</defs>
</svg>
