<svg width="128" height="128" viewBox="0 0 128 128" fill="none" xmlns="http://www.w3.org/2000/svg">
<g id="Frame 84" clip-path="url(#clip0_764_2072)">
<circle id="Ellipse 12" cx="64" cy="64" r="64" fill="url(#paint0_radial_764_2072)"/>
<path id="Rectangle 13" d="M30 34C30 29.5817 33.5817 26 38 26H82C86.4183 26 90 29.5817 90 34V78C90 82.4183 86.4183 86 82 86H38C33.5817 86 30 82.4183 30 78V34Z" fill="#3382FF"/>
<rect id="Rectangle 15" x="45" y="41" width="30" height="4" rx="2" fill="url(#paint1_linear_764_2072)"/>
<rect id="Rectangle 16" x="45" y="51" width="20" height="4" rx="2" fill="url(#paint2_linear_764_2072)"/>
<path id="Rectangle 17" d="M55 70C55 65.5817 58.5817 62 63 62H95C99.4183 62 103 65.5817 103 70V94C103 98.4183 99.4183 102 95 102H63C58.5817 102 55 98.4183 55 94V70Z" fill="#50D5FF"/>
<path id="Vector 3" d="M70 81.5L76.5 88L88.5 76" stroke="url(#paint3_linear_764_2072)" stroke-width="4" stroke-linecap="round" stroke-linejoin="round"/>
<circle id="Ellipse 13" cx="13" cy="26" r="8" fill="url(#paint4_radial_764_2072)"/>
<circle id="Ellipse 14" cx="112" cy="51" r="5" fill="url(#paint5_radial_764_2072)"/>
</g>
<defs>
<radialGradient id="paint0_radial_764_2072" cx="0" cy="0" r="1" gradientUnits="userSpaceOnUse" gradientTransform="translate(64 64) rotate(90) scale(64)">
<stop stop-color="#3382FF" stop-opacity="0"/>
<stop offset="1" stop-color="#3382FF" stop-opacity="0.2"/>
</radialGradient>
<linearGradient id="paint1_linear_764_2072" x1="45" y1="41" x2="74.5" y2="43.5" gradientUnits="userSpaceOnUse">
<stop stop-color="white"/>
<stop offset="1" stop-color="#DBE9FF"/>
</linearGradient>
<linearGradient id="paint2_linear_764_2072" x1="45" y1="51" x2="64.7449" y2="52.1155" gradientUnits="userSpaceOnUse">
<stop stop-color="white"/>
<stop offset="1" stop-color="#DBE9FF"/>
</linearGradient>
<linearGradient id="paint3_linear_764_2072" x1="70" y1="71.6365" x2="92.7584" y2="71.9977" gradientUnits="userSpaceOnUse">
<stop stop-color="white"/>
<stop offset="1" stop-color="#DBE9FF"/>
</linearGradient>
<radialGradient id="paint4_radial_764_2072" cx="0" cy="0" r="1" gradientUnits="userSpaceOnUse" gradientTransform="translate(11 23.3333) rotate(79.3803) scale(10.8525)">
<stop stop-color="#A0C5FF"/>
<stop offset="1" stop-color="#3382FF"/>
</radialGradient>
<radialGradient id="paint5_radial_764_2072" cx="0" cy="0" r="1" gradientUnits="userSpaceOnUse" gradientTransform="translate(110.75 49.3333) rotate(79.3803) scale(6.78284)">
<stop stop-color="#A9EAFF"/>
<stop offset="1" stop-color="#50D5FF"/>
</radialGradient>
<clipPath id="clip0_764_2072">
<rect width="128" height="128" fill="white"/>
</clipPath>
</defs>
</svg>
