<svg width="128" height="128" viewBox="0 0 128 128" fill="none" xmlns="http://www.w3.org/2000/svg">
<g id="Frame 86" clip-path="url(#clip0_764_2099)">
<circle id="Ellipse 12" cx="64" cy="64" r="64" fill="url(#paint0_radial_764_2099)"/>
<path id="Rectangle 13" d="M28 50C28 45.5817 31.5817 42 36 42H80C84.4183 42 88 45.5817 88 50V94C88 98.4183 84.4183 102 80 102H36C31.5817 102 28 98.4183 28 94V50Z" fill="#3382FF"/>
<rect id="Rectangle 15" x="38" y="78" width="18" height="4" rx="2" fill="url(#paint1_linear_764_2099)"/>
<rect id="Rectangle 16" x="38" y="88" width="30" height="4" rx="2" fill="url(#paint2_linear_764_2099)"/>
<circle id="Ellipse 18" cx="78" cy="48" r="23" fill="#50D5FF"/>
<path id="Star 1" d="M76.3855 37.208C77.1845 36.1153 78.8155 36.1153 79.6145 37.208L82.3579 40.9602C82.6048 41.2978 82.9513 41.5495 83.3486 41.6799L87.7649 43.1296C89.051 43.5518 89.555 45.103 88.7627 46.2005L86.042 49.9692C85.7972 50.3083 85.6648 50.7156 85.6636 51.1338L85.6495 55.7819C85.6454 57.1356 84.3259 58.0942 83.0372 57.6798L78.6123 56.2569C78.2141 56.1289 77.7859 56.1289 77.3877 56.2569L72.9628 57.6798C71.6741 58.0942 70.3546 57.1356 70.3505 55.7819L70.3364 51.1338C70.3352 50.7156 70.2028 50.3083 69.958 49.9692L67.2373 46.2005C66.445 45.103 66.949 43.5518 68.2351 43.1296L72.6514 41.6799C73.0487 41.5495 73.3952 41.2978 73.6421 40.9602L76.3855 37.208Z" fill="url(#paint3_linear_764_2099)"/>
<circle id="Ellipse 13" cx="30" cy="11" r="8" fill="url(#paint4_radial_764_2099)"/>
<circle id="Ellipse 14" cx="101" cy="101" r="5" fill="url(#paint5_radial_764_2099)"/>
</g>
<defs>
<radialGradient id="paint0_radial_764_2099" cx="0" cy="0" r="1" gradientUnits="userSpaceOnUse" gradientTransform="translate(64 64) rotate(90) scale(64)">
<stop stop-color="#3382FF" stop-opacity="0"/>
<stop offset="1" stop-color="#3382FF" stop-opacity="0.2"/>
</radialGradient>
<linearGradient id="paint1_linear_764_2099" x1="38" y1="78" x2="55.7811" y2="78.9041" gradientUnits="userSpaceOnUse">
<stop stop-color="white"/>
<stop offset="1" stop-color="#DBE9FF"/>
</linearGradient>
<linearGradient id="paint2_linear_764_2099" x1="38" y1="88" x2="67.5" y2="90.5" gradientUnits="userSpaceOnUse">
<stop stop-color="white"/>
<stop offset="1" stop-color="#DBE9FF"/>
</linearGradient>
<linearGradient id="paint3_linear_764_2099" x1="65" y1="35" x2="90.747" y2="35.2909" gradientUnits="userSpaceOnUse">
<stop stop-color="white"/>
<stop offset="1" stop-color="#DBE9FF"/>
</linearGradient>
<radialGradient id="paint4_radial_764_2099" cx="0" cy="0" r="1" gradientUnits="userSpaceOnUse" gradientTransform="translate(28 8.33333) rotate(79.3803) scale(10.8525)">
<stop stop-color="#A0C5FF"/>
<stop offset="1" stop-color="#3382FF"/>
</radialGradient>
<radialGradient id="paint5_radial_764_2099" cx="0" cy="0" r="1" gradientUnits="userSpaceOnUse" gradientTransform="translate(99.75 99.3333) rotate(79.3803) scale(6.78284)">
<stop stop-color="#A9EAFF"/>
<stop offset="1" stop-color="#50D5FF"/>
</radialGradient>
<clipPath id="clip0_764_2099">
<rect width="128" height="128" fill="white"/>
</clipPath>
</defs>
</svg>
