<svg width="20" height="20" viewBox="0 0 20 20" fill="none" xmlns="http://www.w3.org/2000/svg">
<path d="M15.102 0C12.397 0 10.2041 2.19289 10.2041 4.89796C10.2041 7.60303 12.397 9.79592 15.102 9.79592C17.8071 9.79592 20 7.60303 20 4.89796C20 2.19289 17.8071 0 15.102 0ZM11.8367 4.89796C11.8367 3.09458 13.2987 1.63265 15.102 1.63265C16.9054 1.63265 18.3673 3.09458 18.3673 4.89796C18.3673 6.70134 16.9054 8.16327 15.102 8.16327C13.2987 8.16327 11.8367 6.70134 11.8367 4.89796ZM0 2.04082C0 1.13913 0.730964 0.408163 1.63265 0.408163H7.34694C8.24863 0.408163 8.97959 1.13913 8.97959 2.04082V7.7551C8.97959 8.6568 8.24863 9.38775 7.34694 9.38775H1.63265C0.730964 9.38775 0 8.6568 0 7.7551V2.04082ZM1.63265 2.04082V7.7551H7.34694V2.04082H1.63265ZM0 12.6531C0 11.7514 0.730964 11.0204 1.63265 11.0204H7.34694C8.24863 11.0204 8.97959 11.7514 8.97959 12.6531V18.3673C8.97959 19.2691 8.24863 20 7.34694 20H1.63265C0.730964 20 0 19.2691 0 18.3673V12.6531ZM1.63265 12.6531V18.3673H7.34694V12.6531H1.63265ZM10.6122 12.6531C10.6122 11.7514 11.3432 11.0204 12.2449 11.0204H17.9592C18.8609 11.0204 19.5918 11.7514 19.5918 12.6531V18.3673C19.5918 19.2691 18.8609 20 17.9592 20H12.2449C11.3432 20 10.6122 19.2691 10.6122 18.3673V12.6531ZM12.2449 18.3673H17.9592V12.6531H12.2449V18.3673Z" fill="#4086FF"/>
</svg>
