<svg width="80" height="80" viewBox="0 0 80 80" fill="none" xmlns="http://www.w3.org/2000/svg">
<g id="Frame 12">
<path id="Rectangle 14" opacity="0.8" d="M32 43C32 38.5817 35.5817 35 40 35H64C68.4183 35 72 38.5817 72 43V59C72 67.8366 64.8366 75 56 75H40C35.5817 75 32 71.4183 32 67V43Z" fill="#50D5FF"/>
<path id="Rectangle 13" opacity="0.75" d="M5 23C5 14.1634 12.1634 7 21 7H49C57.8366 7 65 14.1634 65 23V51C65 59.8366 57.8366 67 49 67H21C12.1634 67 5 59.8366 5 51V23Z" fill="#3382FF"/>
<rect id="Rectangle 15" x="20" y="22" width="30" height="4" rx="2" fill="url(#paint0_linear_764_2017)"/>
<rect id="Rectangle 16" x="20" y="32" width="20" height="4" rx="2" fill="url(#paint1_linear_764_2017)"/>
</g>
<defs>
<linearGradient id="paint0_linear_764_2017" x1="20" y1="22" x2="49.5" y2="24.5" gradientUnits="userSpaceOnUse">
<stop stop-color="white"/>
<stop offset="1" stop-color="#DBE9FF"/>
</linearGradient>
<linearGradient id="paint1_linear_764_2017" x1="20" y1="32" x2="39.7449" y2="33.1155" gradientUnits="userSpaceOnUse">
<stop stop-color="white"/>
<stop offset="1" stop-color="#DBE9FF"/>
</linearGradient>
</defs>
</svg>
