<svg width="80" height="80" viewBox="0 0 80 80" fill="none" xmlns="http://www.w3.org/2000/svg">
<g id="Frame 17">
<circle id="Ellipse 2" opacity="0.75" cx="56.0001" cy="54" r="20" fill="#50D5FF"/>
<circle id="Ellipse 1" opacity="0.75" cx="37.0001" cy="38" r="33" fill="#3382FF"/>
<path id="Union" fill-rule="evenodd" clip-rule="evenodd" d="M31.5053 23.683C30.7779 22.8517 29.5144 22.7675 28.6831 23.4949C27.8518 24.2222 27.7676 25.4858 28.495 26.317L34.3427 33.0002H26.0001C24.8956 33.0002 24.0001 33.8956 24.0001 35.0002C24.0001 36.1048 24.8956 37.0002 26.0001 37.0002H35.0001V42H29.0001C27.8956 42 27.0001 42.8954 27.0001 44C27.0001 45.1046 27.8956 46 29.0001 46H35.0001V54.0002C35.0001 55.1048 35.8956 56.0002 37.0001 56.0002C38.1047 56.0002 39.0001 55.1048 39.0001 54.0002V46H45.0001C46.1047 46 47.0001 45.1046 47.0001 44C47.0001 42.8954 46.1047 42 45.0001 42H39.0001V37.0002H48.0001C49.1047 37.0002 50.0001 36.1048 50.0001 35.0002C50.0001 33.8956 49.1047 33.0002 48.0001 33.0002H39.6575L45.5053 26.317C46.2326 25.4858 46.1484 24.2222 45.3171 23.4949C44.4859 22.7675 43.2223 22.8517 42.495 23.683L37.0001 29.9628L31.5053 23.683Z" fill="url(#paint0_linear_764_2054)"/>
</g>
<defs>
<linearGradient id="paint0_linear_764_2054" x1="24.0001" y1="12.3643" x2="55.9907" y2="12.6318" gradientUnits="userSpaceOnUse">
<stop stop-color="white"/>
<stop offset="1" stop-color="#DBE9FF"/>
</linearGradient>
</defs>
</svg>
