<svg xmlns="http://www.w3.org/2000/svg" width="160" height="28" viewBox="0 0 160 28" fill="none">
    <g clip-path="url(#clip0_1453_9051)">
        <path
            d="M50.0771 3.24976H55.485L58.8859 20.7323H59.0905L62.696 5.53319H68.6817L72.0827 20.7323H72.2863L75.7558 3.24976H81.0951L75.6873 26.9002H69.225L65.5857 11.906H65.3812L61.6743 26.9002H55.212L50.0771 3.24976Z"
            fill="#242360" />
        <path
            d="M99.5289 16.234C99.5289 16.7563 99.5116 17.2513 99.4778 17.716C99.444 18.1817 99.4038 18.5394 99.3591 18.7891L87.5236 19.5393C87.614 20.8576 88.0559 21.8227 88.8502 22.4357C89.6437 23.0495 90.8571 23.356 92.4895 23.356C93.0556 23.356 93.6345 23.3167 94.2243 23.2371C94.8141 23.1575 95.3811 23.0614 95.9243 22.9471C96.4685 22.8336 96.9724 22.6973 97.4381 22.5381C97.9028 22.3789 98.2826 22.2198 98.5775 22.0606V25.9459C98.3054 26.1051 97.9366 26.2643 97.4719 26.4235C97.0071 26.5826 96.4685 26.7189 95.8567 26.8324C95.2441 26.9458 94.5694 27.0428 93.8335 27.1224C93.0967 27.202 92.3307 27.2413 91.5382 27.2413C90.1321 27.2413 88.874 27.0931 87.7628 26.7985C86.6517 26.504 85.7158 25.9926 84.9571 25.2653C84.1975 24.5389 83.6141 23.5609 83.206 22.3341C82.7978 21.1073 82.5942 19.5622 82.5942 17.6995C82.5942 15.8369 82.7978 14.2918 83.206 13.065C83.6141 11.8382 84.2039 10.8611 84.9745 10.1338C85.7451 9.40745 86.6973 8.89605 87.8313 8.59964C88.9644 8.30506 90.2462 8.15686 91.6742 8.15686C93.261 8.15686 94.5648 8.35629 95.5856 8.75334C96.6063 9.15129 97.4107 9.70751 98.0005 10.4229C98.5903 11.1383 98.992 11.99 99.2075 12.979C99.4212 13.9679 99.5289 15.0529 99.5289 16.234ZM95.0396 15.5186C95.0396 15.0191 94.9994 14.547 94.9209 14.1042C94.8415 13.6614 94.6826 13.2754 94.4452 12.9451C94.2069 12.6158 93.8673 12.3551 93.4245 12.1611C92.9826 11.9681 92.3982 11.8711 91.6733 11.8711C90.9018 11.8711 90.2618 11.9562 89.7514 12.1273C89.241 12.2974 88.8274 12.5536 88.5097 12.8939C88.1919 13.2351 87.9537 13.6724 87.7957 14.2058C87.6368 14.74 87.5464 15.3704 87.5236 16.0967L95.0396 15.5186Z"
            fill="#242360" />
        <path
            d="M105.855 5.94209C105.311 5.94209 104.857 5.91373 104.495 5.85701C104.132 5.80029 103.848 5.68136 103.645 5.49931C103.44 5.31817 103.299 5.05652 103.219 4.7162C103.14 4.37497 103.101 3.91023 103.101 3.31924C103.101 2.75204 103.14 2.29645 103.219 1.95613C103.299 1.61581 103.44 1.35417 103.645 1.17303C103.849 0.990979 104.132 0.878453 104.495 0.831797C104.857 0.786055 105.311 0.763184 105.855 0.763184C106.421 0.763184 106.88 0.786055 107.233 0.831797C107.584 0.877538 107.862 0.990979 108.066 1.17303C108.271 1.35508 108.412 1.61581 108.492 1.95613C108.571 2.29737 108.611 2.75204 108.611 3.31924C108.611 3.91023 108.57 4.37588 108.492 4.7162C108.413 5.05652 108.271 5.31817 108.066 5.49931C107.862 5.68136 107.584 5.8012 107.233 5.85701C106.88 5.91373 106.421 5.94209 105.855 5.94209ZM103.373 8.49815H108.304V26.9011H103.373V8.49815Z"
            fill="#242360" />
        <path
            d="M111.297 8.49817H116.535L119.425 21.7889H119.63L122.861 8.49817H128.439L131.67 21.7889H131.874L134.764 8.49817H139.934L134.9 26.9011H128.71L125.683 14.3257H125.48L122.453 26.9011H116.263L111.297 8.49817Z"
            fill="#242360" />
        <path
            d="M151.021 27.2413C149.593 27.2413 148.318 27.0931 147.195 26.7985C146.073 26.504 145.132 25.9926 144.372 25.2653C143.612 24.5389 143.029 23.5609 142.621 22.3341C142.213 21.1073 142.009 19.5622 142.009 17.6995C142.009 15.8369 142.213 14.2918 142.621 13.065C143.029 11.8382 143.612 10.8611 144.372 10.1338C145.132 9.40745 146.073 8.89605 147.195 8.59964C148.317 8.30506 149.593 8.15686 151.021 8.15686C152.45 8.15686 153.719 8.30506 154.831 8.59964C155.941 8.89514 156.877 9.40653 157.636 10.1338C158.396 10.8611 158.979 11.8373 159.388 13.065C159.796 14.2918 160.001 15.8369 160.001 17.6995C160.001 19.5622 159.796 21.1073 159.388 22.3341C158.98 23.5609 158.396 24.538 157.636 25.2653C156.877 25.9926 155.941 26.504 154.831 26.7985C153.719 27.0931 152.45 27.2413 151.021 27.2413ZM151.021 23.4923C151.77 23.4923 152.399 23.4017 152.909 23.2197C153.419 23.0385 153.827 22.7257 154.133 22.2829C154.439 21.8401 154.654 21.2436 154.779 20.4944C154.904 19.7442 154.967 18.8129 154.967 17.6995C154.967 16.5871 154.898 15.6549 154.762 14.9056C154.626 14.1555 154.405 13.5544 154.099 13.0988C153.793 12.6441 153.391 12.3212 152.892 12.1282C152.393 11.9351 151.77 11.8382 151.021 11.8382C150.274 11.8382 149.644 11.9351 149.134 12.1282C148.624 12.3212 148.216 12.6451 147.91 13.0988C147.604 13.5535 147.388 14.1555 147.263 14.9056C147.138 15.6549 147.076 16.5871 147.076 17.6995C147.076 18.8129 147.145 19.7442 147.281 20.4944C147.417 21.2436 147.638 21.8401 147.944 22.2829C148.25 22.7257 148.652 23.0385 149.151 23.2197C149.649 23.4017 150.274 23.4923 151.021 23.4923Z"
            fill="#242360" />
        <path
            d="M13.3264 6.223H9.09457L11.0183 9.83936C11.0594 9.93084 11.1069 10.0187 11.1589 10.1028L11.6154 10.9619L14.6275 16.6238L15.9039 19.0225L15.9614 19.1305C16.112 19.4104 16.2892 19.673 16.4891 19.9172C17.3811 21.0105 18.7214 21.7204 20.2297 21.7643L18.8748 24.6076L18.0339 26.3705L17.7765 26.9103C14.9315 26.182 12.5522 24.2865 11.1753 21.7643L11.042 21.5136L2.90705 6.223L0 0.758667H13.3264C16.8534 0.758667 19.8454 3.054 20.8944 6.23581C21.1555 7.0244 21.2961 7.86788 21.2961 8.7443C21.2961 9.78996 21.0953 10.789 20.731 11.7038C20.3548 12.6488 19.8034 13.5042 19.1159 14.2306L18.0668 12.2573L15.4985 7.42967C15.4957 7.43059 15.4939 7.4315 15.4912 7.43333C15.0429 6.70695 14.2413 6.223 13.3264 6.223Z"
            fill="#50D5FF" />
        <path
            d="M44.5991 5.75003C44.5991 6.47642 44.443 7.16529 44.1627 7.78646L44.1609 7.78921L44.076 7.96943L36.3071 24.2618L36.161 24.5692C35.3375 26.1546 33.6831 27.2369 31.7767 27.2369H28.572L28.9847 26.3705L33.1928 17.5451L36.8695 9.83387L41.0776 1.00842C43.1146 1.61862 44.5991 3.51051 44.5991 5.75003Z"
            fill="#3382FF" />
        <path
            d="M33.6464 5.74997C33.6464 6.51844 33.4721 7.24482 33.1607 7.89344L33.1589 7.89618L30.4116 13.6588L25.3499 24.2745L25.348 24.2791L25.2239 24.5408L25.2166 24.5545C25.1207 24.7411 25.0129 24.9204 24.8943 25.0924V25.0933C24.1775 26.1362 23.071 26.8892 21.7854 27.1435C21.7827 27.1435 21.78 27.1444 21.7772 27.1444C21.4084 27.1929 21.0322 27.224 20.6515 27.2331C20.6505 27.2341 20.6487 27.2341 20.6478 27.2331H20.6469C20.5583 27.2359 20.4707 27.2368 20.3812 27.2368C20.3447 27.2368 20.3082 27.2368 20.2726 27.235C19.4116 27.2276 18.5753 27.1151 17.7764 26.9102L18.0338 26.3704L18.8747 24.6075L20.2296 21.7642L21.5983 18.8953L22.2419 17.545L24.1949 13.4483L25.9177 9.83473L26.6472 8.30512L30.1258 1.00928C32.1628 1.61947 33.6464 3.51136 33.6464 5.74997Z"
            fill="#3382FF" />
    </g>
    <defs>
    <clipPath id="clip0_1453_9051">
        <rect width="160" height="26.4828" fill="white" transform="translate(0 0.758667)" />
    </clipPath>
</defs>
</svg>