<svg width="199" height="42" viewBox="0 0 199 42" fill="none" xmlns="http://www.w3.org/2000/svg">
<path d="M30.0181 35.9835C30.0041 38.8891 27.1087 40.9704 24.3711 39.9681C20.6309 38.5992 17.4516 35.8997 15.5096 32.2783L0.675171 4.63408L19.022 4.72836C22.8428 4.74932 26.3971 6.69797 28.4548 9.9073C29.9445 12.2331 30.1023 15.1665 28.8649 17.632L26.6075 22.1405L22.7446 15.2573C22.1417 14.1817 21.2268 13.2877 20.0841 12.8093C19.4216 12.5299 18.703 12.3798 17.9704 12.3763L13.5221 12.3518L22.2819 28.6709C23.8137 31.5275 26.7827 33.3085 30.0322 33.326L30.0181 35.9835Z" fill="#50D5FF"/>
<path d="M24.2939 39.9473L43.149 0C46.9873 1.79848 48.6348 6.3558 46.8296 10.1798L34.5084 36.2805C32.7067 40.1009 28.1323 41.7423 24.2939 39.9473Z" fill="#3382FF"/>
<path d="M39.5701 39.9473L58.4251 0C62.2635 1.79848 63.911 6.3558 62.1057 10.1798L49.7845 36.2805C47.9828 40.1009 43.4084 41.7423 39.5701 39.9473Z" fill="#3382FF"/>
<path d="M69.751 16.2073H75.377L78.9174 34.2934H79.1312L82.8819 18.568H89.1108L92.6512 34.2934H92.865L96.4755 16.2073H102.031L96.4054 40.6772H89.6752L85.8894 25.1648H85.6756L81.8198 40.6772H75.0931L69.751 16.2073Z" fill="#1D2129"/>
<path d="M121.209 29.6382C121.209 30.1795 121.191 30.6894 121.156 31.1713C121.121 31.6532 121.079 32.0234 121.034 32.2818L108.719 33.0571C108.814 34.4191 109.273 35.4178 110.1 36.0534C110.928 36.689 112.19 37.0068 113.886 37.0068C114.475 37.0068 115.078 36.9649 115.691 36.8846C116.305 36.8007 116.894 36.703 117.462 36.5842C118.03 36.4655 118.552 36.3258 119.036 36.1617C119.519 35.9975 119.915 35.8334 120.22 35.6693V39.6888C119.936 39.8529 119.554 40.0171 119.071 40.1812C118.587 40.3453 118.026 40.4885 117.388 40.6037C116.75 40.7225 116.049 40.8203 115.281 40.9041C114.514 40.9879 113.718 41.0263 112.894 41.0263C111.433 41.0263 110.122 40.8726 108.965 40.5688C107.808 40.265 106.834 39.7342 106.045 38.9834C105.253 38.2325 104.646 37.2198 104.222 35.9521C103.798 34.6845 103.584 33.085 103.584 31.1574C103.584 29.2297 103.798 27.6302 104.222 26.3626C104.646 25.0949 105.26 24.0822 106.062 23.3313C106.865 22.5805 107.854 22.0497 109.035 21.7459C110.213 21.4421 111.548 21.2884 113.034 21.2884C114.685 21.2884 116.042 21.4944 117.104 21.9065C118.166 22.3186 119.004 22.8948 119.617 23.6352C120.231 24.3755 120.648 25.2555 120.872 26.2787C121.097 27.295 121.209 28.416 121.209 29.6382ZM116.536 28.8979C116.536 28.3811 116.494 27.8921 116.414 27.4347C116.329 26.9772 116.165 26.5756 115.919 26.2368C115.67 25.8981 115.316 25.6257 114.857 25.4267C114.398 25.2276 113.788 25.1263 113.034 25.1263C112.232 25.1263 111.566 25.2136 111.036 25.3917C110.507 25.5663 110.076 25.8317 109.743 26.1845C109.413 26.5372 109.165 26.9912 109 27.5429C108.835 28.0947 108.74 28.7477 108.716 29.4986L116.536 28.8979Z" fill="#1D2129"/>
<path d="M127.792 18.9906C127.224 18.9906 126.754 18.9626 126.376 18.9033C125.997 18.8439 125.703 18.7217 125.492 18.5331C125.279 18.3445 125.131 18.0756 125.051 17.7229C124.967 17.3702 124.928 16.8883 124.928 16.2771C124.928 15.6904 124.97 15.219 125.051 14.8663C125.135 14.5136 125.282 14.2447 125.492 14.0561C125.706 13.8675 126.001 13.7523 126.376 13.7034C126.754 13.658 127.224 13.6335 127.792 13.6335C128.381 13.6335 128.858 13.658 129.226 13.7034C129.59 13.7523 129.881 13.8675 130.091 14.0561C130.305 14.2447 130.452 14.5136 130.533 14.8663C130.614 15.219 130.656 15.6904 130.656 16.2771C130.656 16.8883 130.614 17.3702 130.533 17.7229C130.449 18.0756 130.302 18.3445 130.091 18.5331C129.878 18.7217 129.59 18.8439 129.226 18.9033C128.858 18.9626 128.381 18.9906 127.792 18.9906ZM125.209 21.6342H130.34V40.6736H125.209V21.6342Z" fill="#1D2129"/>
<path d="M133.453 21.6341H138.904L141.911 35.3864H142.125L145.487 21.6341H151.292L154.653 35.3864H154.867L157.875 21.6341H163.255L158.018 40.6736H151.575L148.424 27.6652H148.21L145.059 40.6736H138.616L133.453 21.6341Z" fill="#1D2129"/>
<path d="M174.788 41.0263C173.301 41.0263 171.973 40.8726 170.806 40.5688C169.638 40.265 168.657 39.7342 167.868 38.9834C167.076 38.2325 166.47 37.2198 166.045 35.9521C165.621 34.6845 165.407 33.085 165.407 31.1574C165.407 29.2297 165.621 27.6302 166.045 26.3626C166.47 25.0949 167.076 24.0822 167.868 23.3313C168.657 22.5805 169.638 22.0497 170.806 21.7459C171.973 21.4421 173.301 21.2884 174.788 21.2884C176.274 21.2884 177.595 21.4421 178.752 21.7459C179.909 22.0532 180.88 22.5805 181.672 23.3313C182.461 24.0822 183.071 25.0949 183.495 26.3626C183.919 27.6302 184.133 29.2297 184.133 31.1574C184.133 33.085 183.919 34.6845 183.495 35.9521C183.071 37.2198 182.461 38.2325 181.672 38.9834C180.88 39.7342 179.909 40.265 178.752 40.5688C177.595 40.8726 176.274 41.0263 174.788 41.0263ZM174.788 37.15C175.566 37.15 176.221 37.0557 176.751 36.8671C177.28 36.6785 177.708 36.3572 178.023 35.8963C178.339 35.4353 178.566 34.8207 178.696 34.0454C178.826 33.2701 178.892 32.3063 178.892 31.1539C178.892 30.0014 178.822 29.0376 178.679 28.2623C178.538 27.4871 178.307 26.8654 177.988 26.394C177.669 25.9225 177.252 25.5908 176.733 25.3882C176.214 25.1892 175.566 25.0879 174.788 25.0879C174.009 25.0879 173.354 25.1892 172.825 25.3882C172.295 25.5873 171.868 25.9225 171.552 26.394C171.233 26.8654 171.009 27.4871 170.879 28.2623C170.75 29.0376 170.683 30.0014 170.683 31.1539C170.683 32.3063 170.753 33.2701 170.897 34.0454C171.037 34.8207 171.268 35.4388 171.587 35.8963C171.906 36.3537 172.323 36.6785 172.842 36.8671C173.361 37.0557 174.009 37.15 174.788 37.15Z" fill="#1D2129"/>
<path fill-rule="evenodd" clip-rule="evenodd" d="M187.077 21.0416C187.077 24.2899 189.731 26.944 192.98 26.944C196.228 26.944 198.882 24.2899 198.882 21.0416C198.882 17.7933 196.228 15.1393 192.98 15.1393C189.731 15.1393 187.077 17.7933 187.077 21.0416ZM187.87 21.0416C187.87 18.2291 190.167 15.9315 192.98 15.9315C195.792 15.9315 198.09 18.2291 198.09 21.0416C198.09 23.8542 195.792 26.1517 192.98 26.1517C190.167 26.1517 187.87 23.8542 187.87 21.0416ZM194.109 21.2001C194.564 21.2991 194.802 21.5764 194.861 22.0716L194.901 22.844C194.94 23.1609 195.04 23.3986 195.198 23.5769H194.386C194.267 23.4382 194.188 23.2203 194.168 22.9232L194.109 22.3092C194.089 22.0518 194.01 21.8537 193.851 21.715C193.712 21.5962 193.495 21.5368 193.197 21.5368H191.851V23.5967H191.098V18.6252H193.336C193.831 18.6252 194.227 18.7242 194.525 18.9619C194.822 19.2194 194.98 19.5759 194.98 20.0513C194.98 20.3088 194.901 20.5465 194.762 20.7445C194.604 20.9624 194.386 21.101 194.109 21.1803V21.2001ZM193.197 20.8832C193.534 20.8832 193.792 20.8237 193.95 20.6653C194.128 20.5266 194.208 20.3286 194.208 20.0711C194.208 19.7938 194.128 19.5957 193.97 19.4571C193.811 19.3184 193.554 19.259 193.197 19.259H191.851V20.8832H193.197Z" fill="#1D2129"/>
</svg>
