<svg width="81" height="80" viewBox="0 0 81 80" fill="none" xmlns="http://www.w3.org/2000/svg">
<g id="Frame 13">
<path id="Rectangle 17" opacity="0.8" d="M35.8 13C35.8 8.58172 39.3817 5 43.8 5H59.8C68.6365 5 75.8 12.1634 75.8 21V37C75.8 41.4183 72.2183 45 67.8 45H43.8C39.3817 45 35.8 41.4183 35.8 37V13Z" fill="#50D5FF"/>
<path id="Rectangle 18" opacity="0.75" d="M5.79999 24C5.79999 19.5817 9.38171 16 13.8 16H57.8C62.2183 16 65.8 19.5817 65.8 24V66.8749C65.8 72.8653 59.4585 76.7306 54.1341 73.9856L39.4659 66.4233C37.1658 65.2375 34.4342 65.2375 32.1341 66.4233L17.4659 73.9856C12.1415 76.7306 5.79999 72.8653 5.79999 66.8749V24Z" fill="#3382FF"/>
<path id="Star 1" d="M34.1855 29.208C34.9845 28.1153 36.6155 28.1153 37.4145 29.208L40.1579 32.9602C40.4048 33.2978 40.7512 33.5495 41.1486 33.6799L45.5649 35.1296C46.851 35.5518 47.355 37.103 46.5627 38.2005L43.842 41.9692C43.5972 42.3083 43.4648 42.7156 43.4636 43.1338L43.4495 47.7819C43.4454 49.1356 42.1259 50.0942 40.8372 49.6798L36.4123 48.2569C36.0141 48.1289 35.5859 48.1289 35.1877 48.2569L30.7628 49.6798C29.4741 50.0942 28.1546 49.1356 28.1505 47.7819L28.1364 43.1338C28.1352 42.7156 28.0028 42.3083 27.758 41.9692L25.0373 38.2005C24.245 37.103 24.749 35.5518 26.0351 35.1296L30.4514 33.6799C30.8487 33.5495 31.1952 33.2978 31.442 32.9602L34.1855 29.208Z" fill="url(#paint0_linear_764_2025)"/>
</g>
<defs>
<linearGradient id="paint0_linear_764_2025" x1="22.8" y1="27" x2="48.547" y2="27.2909" gradientUnits="userSpaceOnUse">
<stop stop-color="white"/>
<stop offset="1" stop-color="#DBE9FF"/>
</linearGradient>
</defs>
</svg>
