<svg width="65" height="64" viewBox="0 0 65 64" fill="none" xmlns="http://www.w3.org/2000/svg">
<path d="M30.9048 1.00392C32.0812 0.376471 33.493 0.376471 34.6695 1.00392L60.6695 14.8706C61.9729 15.5658 62.7871 16.9228 62.7871 18.4V45.6C62.7871 47.0772 61.9729 48.4342 60.6695 49.1294L34.6695 62.9961C33.493 63.6235 32.0812 63.6235 30.9048 62.9961L4.90476 49.1294C3.6013 48.4342 2.78711 47.0772 2.78711 45.6V18.4C2.78711 16.9228 3.6013 15.5658 4.90476 14.8706L30.9048 1.00392Z" fill="url(#paint0_linear_982_8801)"/>
<path d="M31.1315 4.98712C32.3006 4.36949 33.6994 4.36949 34.8685 4.98712L57.3685 16.8739C58.6796 17.5666 59.5 18.9278 59.5 20.4107V43.5893C59.5 45.0722 58.6796 46.4334 57.3685 47.1261L34.8685 59.0129C33.6994 59.6305 32.3006 59.6305 31.1315 59.0129L8.63152 47.1261C7.32036 46.4334 6.5 45.0722 6.5 43.5893V20.4107C6.5 18.9278 7.32036 17.5666 8.63152 16.8739L31.1315 4.98712Z" fill="url(#paint1_linear_982_8801)"/>
<path d="M31.1251 6.99483C32.2976 6.37269 33.7024 6.37269 34.8749 6.99483L55.3749 17.8724C56.6825 18.5662 57.5 19.9255 57.5 21.4058V42.5942C57.5 44.0745 56.6825 45.4338 55.3749 46.1276L34.8749 57.0052C33.7024 57.6273 32.2976 57.6273 31.1251 57.0052L10.6251 46.1276C9.31752 45.4338 8.5 44.0745 8.5 42.5942V21.4058C8.5 19.9255 9.31752 18.5662 10.6251 17.8724L31.1251 6.99483Z" fill="#FFA857"/>
<mask id="mask0_982_8801" style="mask-type:alpha" maskUnits="userSpaceOnUse" x="8" y="6" width="50" height="52">
<path d="M31.1251 6.99483C32.2976 6.37269 33.7024 6.37269 34.8749 6.99483L55.3749 17.8724C56.6825 18.5662 57.5 19.9255 57.5 21.4058V42.5942C57.5 44.0745 56.6825 45.4338 55.3749 46.1276L34.8749 57.0052C33.7024 57.6273 32.2976 57.6273 31.1251 57.0052L10.6251 46.1276C9.31752 45.4338 8.5 44.0745 8.5 42.5942V21.4058C8.5 19.9255 9.31752 18.5662 10.6251 17.8724L31.1251 6.99483Z" fill="#DB9833"/>
</mask>
<g mask="url(#mask0_982_8801)">
<circle cx="32.5" cy="32" r="18" stroke="#FF9737" stroke-width="24" stroke-dasharray="12 12"/>
<g filter="url(#filter0_d_982_8801)">
<path d="M32.5 12L15.5 32.5V43.5H49.5V32.5L32.5 12Z" fill="#FCEEC1"/>
<path d="M25.5 38.5L32.5 12L15.5 32.5L25.5 38.5Z" fill="#F8E49F"/>
<path d="M39.5 38.5L32.5 12L49.5 32.5L39.5 38.5Z" fill="#FFFCF0"/>
<path d="M15.5 32.5H19.5C22.8137 32.5 25.5 35.1863 25.5 38.5V59.5H15.5V32.5Z" fill="url(#paint2_linear_982_8801)"/>
<path d="M39.5 38.5C39.5 35.1863 42.1863 32.5 45.5 32.5H49.5V59.5H39.5V38.5Z" fill="url(#paint3_linear_982_8801)"/>
<path d="M25.5 39.5C25.5 35.634 28.634 32.5 32.5 32.5C36.366 32.5 39.5 35.634 39.5 39.5V59.5H25.7667C25.6194 59.5 25.5 59.3806 25.5 59.2333V39.5Z" fill="url(#paint4_linear_982_8801)"/>
<path d="M25.4531 20.5L32.5 12L30.2394 20.5H25.4531Z" fill="#F7C94B"/>
<path d="M39.5469 20.5L32.5 12L34.7606 20.5H39.5469Z" fill="#FDF18E"/>
<path d="M30.2373 20.5L32.5004 12L34.7607 20.5H30.2373Z" fill="#FAE165"/>
</g>
</g>
<defs>
<filter id="filter0_d_982_8801" x="7.5" y="8" width="50" height="63.5" filterUnits="userSpaceOnUse" color-interpolation-filters="sRGB">
<feFlood flood-opacity="0" result="BackgroundImageFix"/>
<feColorMatrix in="SourceAlpha" type="matrix" values="0 0 0 0 0 0 0 0 0 0 0 0 0 0 0 0 0 0 127 0" result="hardAlpha"/>
<feOffset dy="4"/>
<feGaussianBlur stdDeviation="4"/>
<feComposite in2="hardAlpha" operator="out"/>
<feColorMatrix type="matrix" values="0 0 0 0 0.845833 0 0 0 0 0.35525 0 0 0 0 0 0 0 0 1 0"/>
<feBlend mode="normal" in2="BackgroundImageFix" result="effect1_dropShadow_982_8801"/>
<feBlend mode="normal" in="SourceGraphic" in2="effect1_dropShadow_982_8801" result="shape"/>
</filter>
<linearGradient id="paint0_linear_982_8801" x1="20" y1="8" x2="45.5" y2="56" gradientUnits="userSpaceOnUse">
<stop stop-color="#FDEE77"/>
<stop offset="1" stop-color="#F4A62C"/>
</linearGradient>
<linearGradient id="paint1_linear_982_8801" x1="21.7047" y1="11" x2="43.8985" y2="53.1743" gradientUnits="userSpaceOnUse">
<stop stop-color="#F28F2D"/>
<stop offset="1" stop-color="#FEED76"/>
</linearGradient>
<linearGradient id="paint2_linear_982_8801" x1="18.3688" y1="35.875" x2="30.802" y2="45.1209" gradientUnits="userSpaceOnUse">
<stop stop-color="#FFB443"/>
<stop offset="1" stop-color="#EE7136"/>
</linearGradient>
<linearGradient id="paint3_linear_982_8801" x1="42.3688" y1="35.875" x2="54.802" y2="45.1209" gradientUnits="userSpaceOnUse">
<stop stop-color="#FDF0A1"/>
<stop offset="1" stop-color="#F6C255"/>
</linearGradient>
<linearGradient id="paint4_linear_982_8801" x1="29.5163" y1="35.875" x2="42.4884" y2="49.3802" gradientUnits="userSpaceOnUse">
<stop stop-color="#FAD65C"/>
<stop offset="1" stop-color="#ED8A43"/>
</linearGradient>
</defs>
</svg>
