<svg width="65" height="64" viewBox="0 0 65 64" fill="none" xmlns="http://www.w3.org/2000/svg">
<g id="Frame 283">
<path id="Polygon 14" d="M30.6176 1.00392C31.7941 0.376471 33.2059 0.376471 34.3824 1.00392L60.3824 14.8706C61.6858 15.5658 62.5 16.9228 62.5 18.4V45.6C62.5 47.0772 61.6858 48.4342 60.3824 49.1294L34.3824 62.9961C33.2059 63.6235 31.7941 63.6235 30.6176 62.9961L4.61765 49.1294C3.31419 48.4342 2.5 47.0772 2.5 45.6V18.4C2.5 16.9228 3.31419 15.5658 4.61765 14.8706L30.6176 1.00392Z" fill="url(#paint0_linear_976_8427)"/>
<path id="Polygon 16" d="M31.1315 4.98712C32.3006 4.36949 33.6994 4.36949 34.8685 4.98712L57.3685 16.8739C58.6796 17.5666 59.5 18.9278 59.5 20.4107V43.5893C59.5 45.0722 58.6796 46.4334 57.3685 47.1261L34.8685 59.0129C33.6994 59.6305 32.3006 59.6305 31.1315 59.0129L8.63152 47.1261C7.32036 46.4334 6.5 45.0722 6.5 43.5893V20.4107C6.5 18.9278 7.32036 17.5666 8.63152 16.8739L31.1315 4.98712Z" fill="url(#paint1_linear_976_8427)"/>
<path id="Polygon 17" d="M31.1251 6.99483C32.2976 6.37269 33.7024 6.37269 34.8749 6.99483L55.3749 17.8724C56.6825 18.5662 57.5 19.9255 57.5 21.4058V42.5942C57.5 44.0745 56.6825 45.4338 55.3749 46.1276L34.8749 57.0052C33.7024 57.6273 32.2976 57.6273 31.1251 57.0052L10.6251 46.1276C9.31752 45.4338 8.5 44.0745 8.5 42.5942V21.4058C8.5 19.9255 9.31752 18.5662 10.6251 17.8724L31.1251 6.99483Z" fill="#5D4ADA"/>
<g id="Mask group">
<mask id="mask0_976_8427" style="mask-type:alpha" maskUnits="userSpaceOnUse" x="8" y="6" width="50" height="52">
<path id="Polygon 18" d="M31.1251 6.99483C32.2976 6.37269 33.7024 6.37269 34.8749 6.99483L55.3749 17.8724C56.6825 18.5662 57.5 19.9255 57.5 21.4058V42.5942C57.5 44.0745 56.6825 45.4338 55.3749 46.1276L34.8749 57.0052C33.7024 57.6273 32.2976 57.6273 31.1251 57.0052L10.6251 46.1276C9.31752 45.4338 8.5 44.0745 8.5 42.5942V21.4058C8.5 19.9255 9.31752 18.5662 10.6251 17.8724L31.1251 6.99483Z" fill="url(#paint2_linear_976_8427)"/>
</mask>
<g mask="url(#mask0_976_8427)">
<circle id="Ellipse 73" cx="32.5" cy="32" r="18" stroke="#4C36DF" stroke-width="24" stroke-dasharray="12 12"/>
<g id="Rectangle 174" filter="url(#filter0_i_976_8427)">
<path d="M14.5 34C14.5 24.0589 22.5589 16 32.5 16C42.4411 16 50.5 24.0589 50.5 34V61.9133C50.5 62.5135 50.0135 63 49.4133 63H15.5867C14.9865 63 14.5 62.5135 14.5 61.9133V34Z" fill="url(#paint3_linear_976_8427)"/>
<path d="M14.5 34C14.5 24.0589 22.5589 16 32.5 16C42.4411 16 50.5 24.0589 50.5 34V61.9133C50.5 62.5135 50.0135 63 49.4133 63H15.5867C14.9865 63 14.5 62.5135 14.5 61.9133V34Z" fill="url(#paint4_linear_976_8427)"/>
</g>
<path id="Rectangle 175" d="M17.5 34C17.5 25.7157 24.2157 19 32.5 19C40.7843 19 47.5 25.7157 47.5 34V59.344C47.5 59.7063 47.2063 60 46.844 60H18.156C17.7937 60 17.5 59.7063 17.5 59.344V34Z" fill="url(#paint5_linear_976_8427)"/>
<path id="Vector 111" d="M47.5 47L17.5 47" stroke="url(#paint6_linear_976_8427)" stroke-width="1.5" stroke-dasharray="4 2"/>
<path id="Vector" d="M36.9684 31.8434H27.9955V28.9518C27.9955 28.2771 28.1128 27.6386 28.3475 27.0361C28.5822 26.4337 28.9012 25.9066 29.3044 25.4548C29.7076 25.003 30.183 24.6476 30.7307 24.3886C31.2783 24.1295 31.8651 24 32.491 24C33.1168 24 33.7036 24.1295 34.2513 24.3886C34.7989 24.6476 35.2743 25.003 35.6775 25.4548C36.0807 25.9066 36.3967 26.4337 36.6254 27.0361C36.8541 27.6386 36.9684 28.2771 36.9684 28.9518V31.8434ZM32.491 38.6386C31.8771 38.6386 31.2964 38.5482 30.7487 38.3675C30.2011 38.1867 29.7257 37.9307 29.3225 37.5994C28.9193 37.2681 28.5973 36.8645 28.3566 36.3886C28.1158 35.9126 27.9955 35.3795 27.9955 34.7892V33.5422V33H36.9684V34.7892C36.9684 35.2711 36.8511 35.741 36.6163 36.1988C36.3816 36.6566 36.0597 37.0663 35.6505 37.4277C35.2412 37.7892 34.7658 38.0813 34.2242 38.3042C33.6825 38.5271 33.1048 38.6386 32.491 38.6386ZM40.507 32.9819C40.8561 32.9819 41.1088 33.0241 41.2653 33.1084C41.4218 33.1928 41.5 33.3373 41.5 33.5422C41.5 33.8072 41.4188 33.9729 41.2563 34.0392C41.0938 34.1054 40.8862 34.1386 40.6334 34.1386H40.3265C40.2663 34.7169 40.164 35.2952 40.0196 35.8735C39.8872 36.3795 39.7096 36.9187 39.487 37.491C39.2643 38.0633 38.9784 38.6024 38.6294 39.1084C37.9554 40.0361 37.0827 40.75 36.0115 41.25C34.9403 41.75 33.7608 42 32.4729 42C31.1971 42 30.0507 41.7982 29.0336 41.3946C28.0165 40.991 27.1108 40.3072 26.3164 39.3434C25.9193 38.8614 25.6063 38.3193 25.3776 37.7169C25.1489 37.1145 24.9744 36.5482 24.8541 36.0181C24.7217 35.4036 24.6314 34.7831 24.5832 34.1566H24.3666C23.9694 34.1446 23.7257 34.0904 23.6354 33.994C23.5451 33.8976 23.5 33.7289 23.5 33.488C23.5 33.2711 23.5963 33.1325 23.7889 33.0723C23.9814 33.012 24.2282 32.9819 24.5291 32.9819C24.83 32.9699 25.1008 32.9669 25.3415 32.9729C25.5822 32.9789 25.7748 32.9759 25.9193 32.9639C26.172 32.9639 26.3646 32.9819 26.497 33.0181C26.6294 33.0542 26.7227 33.1084 26.7768 33.1807C26.831 33.253 26.8581 33.3554 26.8581 33.488V33.9398C26.8581 34.0482 26.837 34.2169 26.7949 34.4458C26.7528 34.6747 26.7437 34.9548 26.7678 35.2861C26.7919 35.6175 26.8641 36.003 26.9845 36.4428C27.1048 36.8825 27.3275 37.3614 27.6525 37.8795C27.9654 38.3976 28.3445 38.7922 28.7899 39.0633C29.2352 39.3343 29.6866 39.5271 30.1439 39.6416C30.6013 39.756 31.0376 39.8163 31.4529 39.8223C31.8681 39.8283 32.2081 39.8313 32.4729 39.8313C32.8942 39.8193 33.3064 39.8042 33.7096 39.7861C34.1128 39.7681 34.498 39.7108 34.8651 39.6145C35.2322 39.5181 35.5843 39.3705 35.9213 39.1717C36.2583 38.9729 36.5772 38.6807 36.8781 38.2952C37.2031 37.8855 37.4468 37.4819 37.6093 37.0843C37.7718 36.6867 37.8862 36.3133 37.9524 35.9639C38.0186 35.6145 38.0547 35.2861 38.0607 34.9789C38.0667 34.6717 38.0757 34.3916 38.0878 34.1386C38.0998 33.8133 38.1179 33.5693 38.1419 33.4066C38.166 33.244 38.2141 33.1325 38.2864 33.0723C38.3586 33.012 38.4609 32.9819 38.5933 32.9819H39.1168H40.507Z" fill="url(#paint7_linear_976_8427)"/>
</g>
</g>
</g>
<defs>
<filter id="filter0_i_976_8427" x="14.5" y="16" width="38" height="49" filterUnits="userSpaceOnUse" color-interpolation-filters="sRGB">
<feFlood flood-opacity="0" result="BackgroundImageFix"/>
<feBlend mode="normal" in="SourceGraphic" in2="BackgroundImageFix" result="shape"/>
<feColorMatrix in="SourceAlpha" type="matrix" values="0 0 0 0 0 0 0 0 0 0 0 0 0 0 0 0 0 0 127 0" result="hardAlpha"/>
<feOffset dx="2" dy="2"/>
<feGaussianBlur stdDeviation="1"/>
<feComposite in2="hardAlpha" operator="arithmetic" k2="-1" k3="1"/>
<feColorMatrix type="matrix" values="0 0 0 0 1 0 0 0 0 1 0 0 0 0 1 0 0 0 0.25 0"/>
<feBlend mode="normal" in2="shape" result="effect1_innerShadow_976_8427"/>
</filter>
<linearGradient id="paint0_linear_976_8427" x1="19.7129" y1="8" x2="45.2129" y2="56" gradientUnits="userSpaceOnUse">
<stop stop-color="#BEB4FB"/>
<stop offset="1" stop-color="#5C59F9"/>
</linearGradient>
<linearGradient id="paint1_linear_976_8427" x1="21.7047" y1="11" x2="43.8985" y2="53.1743" gradientUnits="userSpaceOnUse">
<stop stop-color="#7B59F9"/>
<stop offset="1" stop-color="#BF99F8"/>
</linearGradient>
<linearGradient id="paint2_linear_976_8427" x1="22.5572" y1="12.5" x2="43.2165" y2="51.5876" gradientUnits="userSpaceOnUse">
<stop stop-color="#478EFF"/>
<stop offset="1" stop-color="#6196F2"/>
</linearGradient>
<linearGradient id="paint3_linear_976_8427" x1="24.8277" y1="21.875" x2="45.4838" y2="53.6424" gradientUnits="userSpaceOnUse">
<stop stop-color="#87B5FF"/>
<stop offset="1" stop-color="#1563E1"/>
</linearGradient>
<linearGradient id="paint4_linear_976_8427" x1="24.8277" y1="21.875" x2="45.4838" y2="53.6424" gradientUnits="userSpaceOnUse">
<stop stop-color="#BEB4FB"/>
<stop offset="1" stop-color="#5C59F9"/>
</linearGradient>
<linearGradient id="paint5_linear_976_8427" x1="32.5" y1="19" x2="32.5" y2="60" gradientUnits="userSpaceOnUse">
<stop stop-color="#EAF9FE"/>
<stop offset="1" stop-color="#EAF9FE" stop-opacity="0"/>
</linearGradient>
<linearGradient id="paint6_linear_976_8427" x1="43.75" y1="47.2869" x2="43.6213" y2="49.2092" gradientUnits="userSpaceOnUse">
<stop stop-color="#BEB4FB"/>
<stop offset="1" stop-color="#5C59F9"/>
</linearGradient>
<linearGradient id="paint7_linear_976_8427" x1="28.6639" y1="26.25" x2="35.5716" y2="40.1197" gradientUnits="userSpaceOnUse">
<stop stop-color="#BEB4FB"/>
<stop offset="1" stop-color="#5C59F9"/>
</linearGradient>
</defs>
</svg>
