<svg width="65" height="64" viewBox="0 0 65 64" fill="none" xmlns="http://www.w3.org/2000/svg">
<g id="Frame 282">
<path id="Polygon 14" d="M30.9048 1.00392C32.0812 0.376471 33.493 0.376471 34.6695 1.00392L60.6695 14.8706C61.9729 15.5658 62.7871 16.9228 62.7871 18.4V45.6C62.7871 47.0772 61.9729 48.4342 60.6695 49.1294L34.6695 62.9961C33.493 63.6235 32.0812 63.6235 30.9048 62.9961L4.90476 49.1294C3.6013 48.4342 2.78711 47.0772 2.78711 45.6V18.4C2.78711 16.9228 3.6013 15.5658 4.90476 14.8706L30.9048 1.00392Z" fill="url(#paint0_linear_975_8369)"/>
<path id="Polygon 16" d="M31.1315 4.98712C32.3006 4.36949 33.6994 4.36949 34.8685 4.98712L57.3685 16.8739C58.6796 17.5666 59.5 18.9278 59.5 20.4107V43.5893C59.5 45.0722 58.6796 46.4334 57.3685 47.1261L34.8685 59.0129C33.6994 59.6305 32.3006 59.6305 31.1315 59.0129L8.63152 47.1261C7.32036 46.4334 6.5 45.0722 6.5 43.5893V20.4107C6.5 18.9278 7.32036 17.5666 8.63152 16.8739L31.1315 4.98712Z" fill="url(#paint1_linear_975_8369)"/>
<path id="Polygon 17" d="M31.1251 6.99483C32.2976 6.37269 33.7024 6.37269 34.8749 6.99483L55.3749 17.8724C56.6825 18.5662 57.5 19.9255 57.5 21.4058V42.5942C57.5 44.0745 56.6825 45.4338 55.3749 46.1276L34.8749 57.0052C33.7024 57.6273 32.2976 57.6273 31.1251 57.0052L10.6251 46.1276C9.31752 45.4338 8.5 44.0745 8.5 42.5942V21.4058C8.5 19.9255 9.31752 18.5662 10.6251 17.8724L31.1251 6.99483Z" fill="url(#paint2_linear_975_8369)"/>
<g id="Mask group">
<mask id="mask0_975_8369" style="mask-type:alpha" maskUnits="userSpaceOnUse" x="8" y="6" width="50" height="52">
<path id="Polygon 18" d="M31.1251 6.99483C32.2976 6.37269 33.7024 6.37269 34.8749 6.99483L55.3749 17.8724C56.6825 18.5662 57.5 19.9255 57.5 21.4058V42.5942C57.5 44.0745 56.6825 45.4338 55.3749 46.1276L34.8749 57.0052C33.7024 57.6273 32.2976 57.6273 31.1251 57.0052L10.6251 46.1276C9.31752 45.4338 8.5 44.0745 8.5 42.5942V21.4058C8.5 19.9255 9.31752 18.5662 10.6251 17.8724L31.1251 6.99483Z" fill="url(#paint3_linear_975_8369)"/>
</mask>
<g mask="url(#mask0_975_8369)">
<circle id="Ellipse 73" cx="32.5" cy="32" r="18" stroke="#3683FF" stroke-width="24" stroke-dasharray="12 12"/>
<g id="Group 50">
<ellipse id="Ellipse 84" cx="33" cy="50" rx="22.5" ry="20" fill="url(#paint4_radial_975_8369)"/>
<rect id="Rectangle 178" x="23.5" y="42" width="3" height="6" rx="1.5" fill="url(#paint5_linear_975_8369)"/>
<rect id="Rectangle 179" x="31.5" y="39" width="3" height="12" rx="1.5" fill="url(#paint6_linear_975_8369)"/>
<rect id="Rectangle 180" x="39.5" y="42" width="3" height="6" rx="1.5" fill="url(#paint7_linear_975_8369)"/>
</g>
<g id="Group 51">
<path id="Union" fill-rule="evenodd" clip-rule="evenodd" d="M25.583 15.0833C23.3739 15.0833 21.583 16.8741 21.583 19.0833V30.5833C21.583 32.7924 23.3739 34.5833 25.583 34.5833H31.6235L33.122 36.3136C33.3214 36.5438 33.6786 36.5438 33.878 36.3136L35.3765 34.5833H42.4997C44.7088 34.5833 46.4997 32.7924 46.4997 30.5833V19.0833C46.4997 16.8741 44.7088 15.0833 42.4997 15.0833H25.583Z" fill="url(#paint8_linear_975_8369)"/>
<path id="Union_2" fill-rule="evenodd" clip-rule="evenodd" d="M24.5 14C22.2909 14 20.5 15.7909 20.5 18V29.5C20.5 31.7091 22.2909 33.5 24.5 33.5H31.6236L33.122 35.2302C33.3214 35.4605 33.6786 35.4605 33.878 35.2302L35.3764 33.5H41.4167C43.6258 33.5 45.4167 31.7091 45.4167 29.5V18C45.4167 15.7909 43.6258 14 41.4167 14H24.5Z" fill="#EAF9FE"/>
<circle id="Ellipse 74" cx="27.5" cy="23.864" r="2" fill="url(#paint9_radial_975_8369)"/>
<circle id="Ellipse 75" cx="33.5" cy="23.864" r="2" fill="url(#paint10_radial_975_8369)"/>
<circle id="Ellipse 76" cx="39.5" cy="23.864" r="2" fill="url(#paint11_radial_975_8369)"/>
</g>
</g>
</g>
</g>
<defs>
<linearGradient id="paint0_linear_975_8369" x1="20" y1="8" x2="45.5" y2="56" gradientUnits="userSpaceOnUse">
<stop stop-color="#87B5FF"/>
<stop offset="1" stop-color="#3382FF"/>
</linearGradient>
<linearGradient id="paint1_linear_975_8369" x1="21.7047" y1="11" x2="43.8985" y2="53.1743" gradientUnits="userSpaceOnUse">
<stop stop-color="#49A5FA"/>
<stop offset="1" stop-color="#93EAEF"/>
</linearGradient>
<linearGradient id="paint2_linear_975_8369" x1="22.5572" y1="12.5" x2="43.2165" y2="51.5876" gradientUnits="userSpaceOnUse">
<stop stop-color="#478EFF"/>
<stop offset="1" stop-color="#6196F2"/>
</linearGradient>
<linearGradient id="paint3_linear_975_8369" x1="22.5572" y1="12.5" x2="43.2165" y2="51.5876" gradientUnits="userSpaceOnUse">
<stop stop-color="#478EFF"/>
<stop offset="1" stop-color="#6196F2"/>
</linearGradient>
<radialGradient id="paint4_radial_975_8369" cx="0" cy="0" r="1" gradientUnits="userSpaceOnUse" gradientTransform="translate(29.25 43.3333) rotate(64.2593) scale(25.9038 27.9882)">
<stop stop-color="#92E9F0"/>
<stop offset="1" stop-color="#3482FF"/>
</radialGradient>
<linearGradient id="paint5_linear_975_8369" x1="24.3606" y1="42.75" x2="27.2456" y2="45.6463" gradientUnits="userSpaceOnUse">
<stop stop-color="#87B5FF"/>
<stop offset="1" stop-color="#3382FF"/>
</linearGradient>
<linearGradient id="paint6_linear_975_8369" x1="32.3606" y1="40.5" x2="36.9875" y2="42.8225" gradientUnits="userSpaceOnUse">
<stop stop-color="#87B5FF"/>
<stop offset="1" stop-color="#3382FF"/>
</linearGradient>
<linearGradient id="paint7_linear_975_8369" x1="40.3606" y1="42.75" x2="43.2456" y2="45.6463" gradientUnits="userSpaceOnUse">
<stop stop-color="#87B5FF"/>
<stop offset="1" stop-color="#3382FF"/>
</linearGradient>
<linearGradient id="paint8_linear_975_8369" x1="26.9804" y1="26.037" x2="34.7387" y2="34.0759" gradientUnits="userSpaceOnUse">
<stop stop-color="#E9F1FF"/>
<stop offset="0.0001" stop-color="#3583FF"/>
<stop offset="1" stop-color="#89DFF2"/>
</linearGradient>
<radialGradient id="paint9_radial_975_8369" cx="0" cy="0" r="1" gradientUnits="userSpaceOnUse" gradientTransform="translate(27.1667 23.1973) rotate(66.8014) scale(2.53859)">
<stop stop-color="#92E9F0"/>
<stop offset="1" stop-color="#3482FF"/>
</radialGradient>
<radialGradient id="paint10_radial_975_8369" cx="0" cy="0" r="1" gradientUnits="userSpaceOnUse" gradientTransform="translate(33.1667 23.1973) rotate(66.8014) scale(2.53859)">
<stop stop-color="#92E9F0"/>
<stop offset="1" stop-color="#3482FF"/>
</radialGradient>
<radialGradient id="paint11_radial_975_8369" cx="0" cy="0" r="1" gradientUnits="userSpaceOnUse" gradientTransform="translate(39.1667 23.1973) rotate(66.8014) scale(2.53859)">
<stop stop-color="#92E9F0"/>
<stop offset="1" stop-color="#3482FF"/>
</radialGradient>
</defs>
</svg>
