<svg width="65" height="64" viewBox="0 0 65 64" fill="none" xmlns="http://www.w3.org/2000/svg">
<g id="Frame 263">
<path id="Polygon 14" d="M30.9048 1.00392C32.0812 0.376471 33.493 0.376471 34.6695 1.00392L60.6695 14.8706C61.9729 15.5658 62.7871 16.9228 62.7871 18.4V45.6C62.7871 47.0772 61.9729 48.4342 60.6695 49.1294L34.6695 62.9961C33.493 63.6235 32.0812 63.6235 30.9048 62.9961L4.90476 49.1294C3.6013 48.4342 2.78711 47.0772 2.78711 45.6V18.4C2.78711 16.9228 3.6013 15.5658 4.90476 14.8706L30.9048 1.00392Z" fill="url(#paint0_linear_972_8193)"/>
<path id="Polygon 16" d="M31.1315 4.98712C32.3006 4.36949 33.6994 4.36949 34.8685 4.98712L57.3685 16.8739C58.6796 17.5666 59.5 18.9278 59.5 20.4107V43.5893C59.5 45.0722 58.6796 46.4334 57.3685 47.1261L34.8685 59.0129C33.6994 59.6305 32.3006 59.6305 31.1315 59.0129L8.63152 47.1261C7.32036 46.4334 6.5 45.0722 6.5 43.5893V20.4107C6.5 18.9278 7.32036 17.5666 8.63152 16.8739L31.1315 4.98712Z" fill="url(#paint1_linear_972_8193)"/>
<path id="Polygon 17" d="M31.1251 6.99483C32.2976 6.37269 33.7024 6.37269 34.8749 6.99483L55.3749 17.8724C56.6825 18.5662 57.5 19.9255 57.5 21.4058V42.5942C57.5 44.0745 56.6825 45.4338 55.3749 46.1276L34.8749 57.0052C33.7024 57.6273 32.2976 57.6273 31.1251 57.0052L10.6251 46.1276C9.31752 45.4338 8.5 44.0745 8.5 42.5942V21.4058C8.5 19.9255 9.31752 18.5662 10.6251 17.8724L31.1251 6.99483Z" fill="url(#paint2_linear_972_8193)"/>
<g id="Mask group">
<mask id="mask0_972_8193" style="mask-type:alpha" maskUnits="userSpaceOnUse" x="8" y="6" width="50" height="52">
<path id="Polygon 18" d="M31.1251 6.99483C32.2976 6.37269 33.7024 6.37269 34.8749 6.99483L55.3749 17.8724C56.6825 18.5662 57.5 19.9255 57.5 21.4058V42.5942C57.5 44.0745 56.6825 45.4338 55.3749 46.1276L34.8749 57.0052C33.7024 57.6273 32.2976 57.6273 31.1251 57.0052L10.6251 46.1276C9.31752 45.4338 8.5 44.0745 8.5 42.5942V21.4058C8.5 19.9255 9.31752 18.5662 10.6251 17.8724L31.1251 6.99483Z" fill="url(#paint3_linear_972_8193)"/>
</mask>
<g mask="url(#mask0_972_8193)">
<circle id="Ellipse 73" cx="32.5" cy="32" r="18" stroke="#3683FF" stroke-width="24" stroke-dasharray="12 12"/>
<g id="Rectangle 174" filter="url(#filter0_i_972_8193)">
<rect x="15.5" y="19" width="35" height="44" rx="4" fill="url(#paint4_linear_972_8193)"/>
</g>
<rect id="Rectangle 175" x="18.5" y="22" width="29" height="38" rx="2" fill="url(#paint5_linear_972_8193)"/>
</g>
</g>
<rect id="Rectangle 176" x="23.5" y="26" width="18" height="3" rx="1.5" fill="url(#paint6_linear_972_8193)"/>
<rect id="Rectangle 177" x="23.5" y="33" width="18" height="3" rx="1.5" fill="url(#paint7_linear_972_8193)"/>
<rect id="Rectangle 178" x="23.5" y="40" width="18" height="3" rx="1.5" fill="url(#paint8_linear_972_8193)"/>
<rect id="Rectangle 179" x="23.5" y="47" width="8" height="3" rx="1.5" fill="url(#paint9_linear_972_8193)"/>
<path id="Rectangle 18" d="M34.5127 32.1162L44.0145 32.1239L44.0015 48.2038L34.5034 43.6019L34.5127 32.1162Z" fill="#3382FF"/>
<path id="Rectangle 14" d="M44.0146 32.1243L53.5164 32.1319L53.5071 43.6176L44.0017 48.2042L44.0146 32.1243Z" fill="url(#paint10_linear_972_8193)"/>
<path id="Polygon 2" d="M44.0174 27.0077L53.515 32.1317L44.0091 37.2403L34.5115 32.1163L44.0174 27.0077Z" fill="#94BFFF"/>
</g>
<defs>
<filter id="filter0_i_972_8193" x="15.5" y="19" width="37" height="46" filterUnits="userSpaceOnUse" color-interpolation-filters="sRGB">
<feFlood flood-opacity="0" result="BackgroundImageFix"/>
<feBlend mode="normal" in="SourceGraphic" in2="BackgroundImageFix" result="shape"/>
<feColorMatrix in="SourceAlpha" type="matrix" values="0 0 0 0 0 0 0 0 0 0 0 0 0 0 0 0 0 0 127 0" result="hardAlpha"/>
<feOffset dx="2" dy="2"/>
<feGaussianBlur stdDeviation="1"/>
<feComposite in2="hardAlpha" operator="arithmetic" k2="-1" k3="1"/>
<feColorMatrix type="matrix" values="0 0 0 0 1 0 0 0 0 1 0 0 0 0 1 0 0 0 0.25 0"/>
<feBlend mode="normal" in2="shape" result="effect1_innerShadow_972_8193"/>
</filter>
<linearGradient id="paint0_linear_972_8193" x1="20" y1="8" x2="45.5" y2="56" gradientUnits="userSpaceOnUse">
<stop stop-color="#87B5FF"/>
<stop offset="1" stop-color="#3382FF"/>
</linearGradient>
<linearGradient id="paint1_linear_972_8193" x1="21.7047" y1="11" x2="43.8985" y2="53.1743" gradientUnits="userSpaceOnUse">
<stop stop-color="#49A5FA"/>
<stop offset="1" stop-color="#93EAEF"/>
</linearGradient>
<linearGradient id="paint2_linear_972_8193" x1="22.5572" y1="12.5" x2="43.2165" y2="51.5876" gradientUnits="userSpaceOnUse">
<stop stop-color="#478EFF"/>
<stop offset="1" stop-color="#6196F2"/>
</linearGradient>
<linearGradient id="paint3_linear_972_8193" x1="22.5572" y1="12.5" x2="43.2165" y2="51.5876" gradientUnits="userSpaceOnUse">
<stop stop-color="#478EFF"/>
<stop offset="1" stop-color="#6196F2"/>
</linearGradient>
<linearGradient id="paint4_linear_972_8193" x1="25.5409" y1="24.5" x2="44.573" y2="54.8971" gradientUnits="userSpaceOnUse">
<stop stop-color="#87B5FF"/>
<stop offset="1" stop-color="#1563E1"/>
</linearGradient>
<linearGradient id="paint5_linear_972_8193" x1="33" y1="22" x2="33" y2="60" gradientUnits="userSpaceOnUse">
<stop stop-color="#EAF9FE"/>
<stop offset="1" stop-color="#B8D7FB"/>
</linearGradient>
<linearGradient id="paint6_linear_972_8193" x1="28.6639" y1="26.375" x2="28.9017" y2="29.2403" gradientUnits="userSpaceOnUse">
<stop stop-color="#49A5FA"/>
<stop offset="1" stop-color="#93EAEF"/>
</linearGradient>
<linearGradient id="paint7_linear_972_8193" x1="28.6639" y1="33.375" x2="28.9017" y2="36.2403" gradientUnits="userSpaceOnUse">
<stop stop-color="#49A5FA"/>
<stop offset="1" stop-color="#93EAEF"/>
</linearGradient>
<linearGradient id="paint8_linear_972_8193" x1="28.6639" y1="40.375" x2="28.9017" y2="43.2403" gradientUnits="userSpaceOnUse">
<stop stop-color="#49A5FA"/>
<stop offset="1" stop-color="#93EAEF"/>
</linearGradient>
<linearGradient id="paint9_linear_972_8193" x1="25.7951" y1="47.375" x2="26.3157" y2="50.1628" gradientUnits="userSpaceOnUse">
<stop stop-color="#49A5FA"/>
<stop offset="1" stop-color="#93EAEF"/>
</linearGradient>
<linearGradient id="paint10_linear_972_8193" x1="46.7389" y1="34.1365" x2="54.3517" y2="43.1836" gradientUnits="userSpaceOnUse">
<stop stop-color="#49A5FA"/>
<stop offset="1" stop-color="#93EAEF"/>
</linearGradient>
</defs>
</svg>
