<svg width="65" height="64" viewBox="0 0 65 64" fill="none" xmlns="http://www.w3.org/2000/svg">
<g id="Frame 263">
<path id="Polygon 14" d="M30.9048 1.00392C32.0812 0.376471 33.493 0.376471 34.6695 1.00392L60.6695 14.8706C61.9729 15.5658 62.7871 16.9228 62.7871 18.4V45.6C62.7871 47.0772 61.9729 48.4342 60.6695 49.1294L34.6695 62.9961C33.493 63.6235 32.0812 63.6235 30.9048 62.9961L4.90476 49.1294C3.6013 48.4342 2.78711 47.0772 2.78711 45.6V18.4C2.78711 16.9228 3.6013 15.5658 4.90476 14.8706L30.9048 1.00392Z" fill="url(#paint0_linear_972_8175)"/>
<path id="Polygon 16" d="M31.1315 4.98712C32.3006 4.36949 33.6994 4.36949 34.8685 4.98712L57.3685 16.8739C58.6796 17.5666 59.5 18.9278 59.5 20.4107V43.5893C59.5 45.0722 58.6796 46.4334 57.3685 47.1261L34.8685 59.0129C33.6994 59.6305 32.3006 59.6305 31.1315 59.0129L8.63152 47.1261C7.32036 46.4334 6.5 45.0722 6.5 43.5893V20.4107C6.5 18.9278 7.32036 17.5666 8.63152 16.8739L31.1315 4.98712Z" fill="url(#paint1_linear_972_8175)"/>
<path id="Polygon 17" d="M31.1251 6.99483C32.2976 6.37269 33.7024 6.37269 34.8749 6.99483L55.3749 17.8724C56.6825 18.5662 57.5 19.9255 57.5 21.4058V42.5942C57.5 44.0745 56.6825 45.4338 55.3749 46.1276L34.8749 57.0052C33.7024 57.6273 32.2976 57.6273 31.1251 57.0052L10.6251 46.1276C9.31752 45.4338 8.5 44.0745 8.5 42.5942V21.4058C8.5 19.9255 9.31752 18.5662 10.6251 17.8724L31.1251 6.99483Z" fill="#FFA857"/>
<g id="Mask group">
<mask id="mask0_972_8175" style="mask-type:alpha" maskUnits="userSpaceOnUse" x="8" y="6" width="50" height="52">
<path id="Polygon 18" d="M31.1251 6.99483C32.2976 6.37269 33.7024 6.37269 34.8749 6.99483L55.3749 17.8724C56.6825 18.5662 57.5 19.9255 57.5 21.4058V42.5942C57.5 44.0745 56.6825 45.4338 55.3749 46.1276L34.8749 57.0052C33.7024 57.6273 32.2976 57.6273 31.1251 57.0052L10.6251 46.1276C9.31752 45.4338 8.5 44.0745 8.5 42.5942V21.4058C8.5 19.9255 9.31752 18.5662 10.6251 17.8724L31.1251 6.99483Z" fill="#DB9833"/>
</mask>
<g mask="url(#mask0_972_8175)">
<circle id="Ellipse 73" cx="32.5" cy="32" r="18" stroke="#FF9737" stroke-width="24" stroke-dasharray="12 12"/>
</g>
</g>
<g id="Group 31">
<g id="Vector 53" filter="url(#filter0_i_972_8175)">
<path d="M31.1444 21.5082V15.3264C31.1444 13.4893 32.6337 12 34.4708 12C36.308 12 37.7973 13.4893 37.7973 15.3265V22.5187C37.7973 23.5971 38.6715 24.4713 39.7498 24.4713H45.7618C47.1807 24.4713 48.331 25.6215 48.331 27.0405V27.3056C48.331 28.871 47.062 30.14 45.4966 30.14H46.8889C48.2977 30.14 49.4398 31.2821 49.4398 32.691C49.4398 34.0998 48.2977 35.2419 46.8889 35.2419H44.6713C46.0801 35.2419 47.2222 36.384 47.2222 37.7928C47.2222 39.2017 46.0801 40.3438 44.6713 40.3438H43.2915C44.5438 40.3438 45.559 41.359 45.559 42.6113C45.559 43.8636 44.5438 44.8788 43.2915 44.8788H25.0459V25.0381H27.6144C29.564 25.0381 31.1444 23.4577 31.1444 21.5082Z" fill="url(#paint2_linear_972_8175)"/>
</g>
<path id="Intersect" fill-rule="evenodd" clip-rule="evenodd" d="M39.3641 44.8786L36.9299 43.905C31.9944 41.9308 28.758 37.1505 28.758 31.8348V24.8486C28.3994 24.9714 28.0147 25.038 27.6144 25.038H25.0459V44.8786L39.3641 44.8786Z" fill="url(#paint3_linear_972_8175)"/>
<g id="Rectangle 173" filter="url(#filter1_ii_972_8175)">
<path d="M17.4559 25.4857C17.5495 24.4555 18.4132 23.6667 19.4476 23.6667H25.1667C26.2712 23.6667 27.1667 24.5622 27.1667 25.6667V45.0001C27.1667 46.1046 26.2712 47.0001 25.1667 47.0001H17.6901C16.514 47.0001 15.5918 45.9902 15.6983 44.819L17.4559 25.4857Z" fill="url(#paint4_linear_972_8175)"/>
</g>
<path id="Vector 54" d="M38.5 30H46.5" stroke="#EC8830" stroke-width="0.5" stroke-linecap="round"/>
<path id="Vector 55" d="M38.5 35.2H45.5" stroke="#EC8830" stroke-width="0.5" stroke-linecap="round"/>
<path id="Vector 56" d="M36.6514 40.6365H44.6059" stroke="#EC8830" stroke-width="0.5" stroke-linecap="round"/>
</g>
</g>
<defs>
<filter id="filter0_i_972_8175" x="25.0459" y="12" width="26.3936" height="32.8789" filterUnits="userSpaceOnUse" color-interpolation-filters="sRGB">
<feFlood flood-opacity="0" result="BackgroundImageFix"/>
<feBlend mode="normal" in="SourceGraphic" in2="BackgroundImageFix" result="shape"/>
<feColorMatrix in="SourceAlpha" type="matrix" values="0 0 0 0 0 0 0 0 0 0 0 0 0 0 0 0 0 0 127 0" result="hardAlpha"/>
<feOffset dx="2"/>
<feGaussianBlur stdDeviation="1"/>
<feComposite in2="hardAlpha" operator="arithmetic" k2="-1" k3="1"/>
<feColorMatrix type="matrix" values="0 0 0 0 1 0 0 0 0 1 0 0 0 0 1 0 0 0 0.65 0"/>
<feBlend mode="normal" in2="shape" result="effect1_innerShadow_972_8175"/>
</filter>
<filter id="filter1_ii_972_8175" x="13.6895" y="21.6667" width="15.4775" height="25.3333" filterUnits="userSpaceOnUse" color-interpolation-filters="sRGB">
<feFlood flood-opacity="0" result="BackgroundImageFix"/>
<feBlend mode="normal" in="SourceGraphic" in2="BackgroundImageFix" result="shape"/>
<feColorMatrix in="SourceAlpha" type="matrix" values="0 0 0 0 0 0 0 0 0 0 0 0 0 0 0 0 0 0 127 0" result="hardAlpha"/>
<feOffset dx="2" dy="-4"/>
<feGaussianBlur stdDeviation="1"/>
<feComposite in2="hardAlpha" operator="arithmetic" k2="-1" k3="1"/>
<feColorMatrix type="matrix" values="0 0 0 0 0.886275 0 0 0 0 0.34902 0 0 0 0 0.160784 0 0 0 1 0"/>
<feBlend mode="normal" in2="shape" result="effect1_innerShadow_972_8175"/>
<feColorMatrix in="SourceAlpha" type="matrix" values="0 0 0 0 0 0 0 0 0 0 0 0 0 0 0 0 0 0 127 0" result="hardAlpha"/>
<feOffset dx="-2" dy="-4"/>
<feGaussianBlur stdDeviation="1"/>
<feComposite in2="hardAlpha" operator="arithmetic" k2="-1" k3="1"/>
<feColorMatrix type="matrix" values="0 0 0 0 0.886275 0 0 0 0 0.34902 0 0 0 0 0.160784 0 0 0 1 0"/>
<feBlend mode="normal" in2="effect1_innerShadow_972_8175" result="effect2_innerShadow_972_8175"/>
</filter>
<linearGradient id="paint0_linear_972_8175" x1="20" y1="8" x2="45.5" y2="56" gradientUnits="userSpaceOnUse">
<stop stop-color="#FDEE77"/>
<stop offset="1" stop-color="#F4A62C"/>
</linearGradient>
<linearGradient id="paint1_linear_972_8175" x1="21.7047" y1="11" x2="43.8985" y2="53.1743" gradientUnits="userSpaceOnUse">
<stop stop-color="#F28F2D"/>
<stop offset="1" stop-color="#FEED76"/>
</linearGradient>
<linearGradient id="paint2_linear_972_8175" x1="37.2429" y1="12" x2="37.2429" y2="44.8788" gradientUnits="userSpaceOnUse">
<stop stop-color="#FEF6C0"/>
<stop offset="1" stop-color="#FCE880"/>
</linearGradient>
<linearGradient id="paint3_linear_972_8175" x1="32.205" y1="24.8486" x2="32.205" y2="44.8786" gradientUnits="userSpaceOnUse">
<stop stop-color="#FCEAA3"/>
<stop offset="1" stop-color="#F5B159"/>
</linearGradient>
<linearGradient id="paint4_linear_972_8175" x1="21.3333" y1="23.6667" x2="21.3333" y2="47.0001" gradientUnits="userSpaceOnUse">
<stop stop-color="#FADA61"/>
<stop offset="1" stop-color="#F2963A"/>
</linearGradient>
</defs>
</svg>
