<svg width="65" height="64" viewBox="0 0 65 64" fill="none" xmlns="http://www.w3.org/2000/svg">
<g id="Frame 263">
<path id="Polygon 14" d="M30.6176 1.00392C31.7941 0.376471 33.2059 0.376471 34.3824 1.00392L60.3824 14.8706C61.6858 15.5658 62.5 16.9228 62.5 18.4V45.6C62.5 47.0772 61.6858 48.4342 60.3824 49.1294L34.3824 62.9961C33.2059 63.6235 31.7941 63.6235 30.6176 62.9961L4.61765 49.1294C3.31419 48.4342 2.5 47.0772 2.5 45.6V18.4C2.5 16.9228 3.31419 15.5658 4.61765 14.8706L30.6176 1.00392Z" fill="url(#paint0_linear_972_8213)"/>
<path id="Polygon 16" d="M31.1315 4.98712C32.3006 4.36949 33.6994 4.36949 34.8685 4.98712L57.3685 16.8739C58.6796 17.5666 59.5 18.9278 59.5 20.4107V43.5893C59.5 45.0722 58.6796 46.4334 57.3685 47.1261L34.8685 59.0129C33.6994 59.6305 32.3006 59.6305 31.1315 59.0129L8.63152 47.1261C7.32036 46.4334 6.5 45.0722 6.5 43.5893V20.4107C6.5 18.9278 7.32036 17.5666 8.63152 16.8739L31.1315 4.98712Z" fill="url(#paint1_linear_972_8213)"/>
<path id="Polygon 17" d="M31.1251 6.99483C32.2976 6.37269 33.7024 6.37269 34.8749 6.99483L55.3749 17.8724C56.6825 18.5662 57.5 19.9255 57.5 21.4058V42.5942C57.5 44.0745 56.6825 45.4338 55.3749 46.1276L34.8749 57.0052C33.7024 57.6273 32.2976 57.6273 31.1251 57.0052L10.6251 46.1276C9.31752 45.4338 8.5 44.0745 8.5 42.5942V21.4058C8.5 19.9255 9.31752 18.5662 10.6251 17.8724L31.1251 6.99483Z" fill="#5D4ADA"/>
<g id="Mask group">
<mask id="mask0_972_8213" style="mask-type:alpha" maskUnits="userSpaceOnUse" x="8" y="6" width="50" height="52">
<path id="Polygon 18" d="M31.1251 6.99483C32.2976 6.37269 33.7024 6.37269 34.8749 6.99483L55.3749 17.8724C56.6825 18.5662 57.5 19.9255 57.5 21.4058V42.5942C57.5 44.0745 56.6825 45.4338 55.3749 46.1276L34.8749 57.0052C33.7024 57.6273 32.2976 57.6273 31.1251 57.0052L10.6251 46.1276C9.31752 45.4338 8.5 44.0745 8.5 42.5942V21.4058C8.5 19.9255 9.31752 18.5662 10.6251 17.8724L31.1251 6.99483Z" fill="url(#paint2_linear_972_8213)"/>
</mask>
<g mask="url(#mask0_972_8213)">
<circle id="Ellipse 73" cx="32.5" cy="32" r="18" stroke="#4C36DF" stroke-width="24" stroke-dasharray="12 12"/>
<path id="Rectangle 186" d="M24.5 7H18.5L30.5 25H36.5L24.5 7Z" fill="#8280FF"/>
<g id="Rectangle 174" filter="url(#filter0_i_972_8213)">
<rect x="15.5" y="19" width="35" height="44" rx="4" fill="url(#paint3_linear_972_8213)"/>
<rect x="15.5" y="19" width="35" height="44" rx="4" fill="url(#paint4_linear_972_8213)"/>
</g>
<rect id="Rectangle 175" x="18.5" y="22" width="29" height="38" rx="2" fill="url(#paint5_linear_972_8213)"/>
<path id="Rectangle 185" d="M42.5 7H48.5L36.5 25H30.5L42.5 7Z" fill="#C8D0FD"/>
</g>
</g>
<rect id="Rectangle 176" x="28.5" y="25" width="10" height="3" rx="1.5" fill="url(#paint6_linear_972_8213)"/>
<rect id="Rectangle 184" x="26.5" y="34" width="13" height="12" rx="1" fill="#CDD4FD" stroke="url(#paint7_linear_972_8213)" stroke-width="2"/>
<rect id="Rectangle 182" x="24.5" y="44" width="4" height="4" rx="1" fill="#CDD4FD" stroke="url(#paint8_linear_972_8213)" stroke-width="2"/>
<rect id="Rectangle 183" x="37.5" y="44" width="4" height="4" rx="1" fill="#CDD4FD" stroke="url(#paint9_linear_972_8213)" stroke-width="2"/>
<rect id="Rectangle 180" x="24.5" y="32" width="4" height="4" rx="1" fill="#CDD4FD" stroke="url(#paint10_linear_972_8213)" stroke-width="2"/>
<rect id="Rectangle 181" x="37.5" y="32" width="4" height="4" rx="1" fill="#CDD4FD" stroke="url(#paint11_linear_972_8213)" stroke-width="2"/>
</g>
<defs>
<filter id="filter0_i_972_8213" x="15.5" y="19" width="37" height="46" filterUnits="userSpaceOnUse" color-interpolation-filters="sRGB">
<feFlood flood-opacity="0" result="BackgroundImageFix"/>
<feBlend mode="normal" in="SourceGraphic" in2="BackgroundImageFix" result="shape"/>
<feColorMatrix in="SourceAlpha" type="matrix" values="0 0 0 0 0 0 0 0 0 0 0 0 0 0 0 0 0 0 127 0" result="hardAlpha"/>
<feOffset dx="2" dy="2"/>
<feGaussianBlur stdDeviation="1"/>
<feComposite in2="hardAlpha" operator="arithmetic" k2="-1" k3="1"/>
<feColorMatrix type="matrix" values="0 0 0 0 1 0 0 0 0 1 0 0 0 0 1 0 0 0 0.25 0"/>
<feBlend mode="normal" in2="shape" result="effect1_innerShadow_972_8213"/>
</filter>
<linearGradient id="paint0_linear_972_8213" x1="19.7129" y1="8" x2="45.2129" y2="56" gradientUnits="userSpaceOnUse">
<stop stop-color="#BEB4FB"/>
<stop offset="1" stop-color="#5C59F9"/>
</linearGradient>
<linearGradient id="paint1_linear_972_8213" x1="21.7047" y1="11" x2="43.8985" y2="53.1743" gradientUnits="userSpaceOnUse">
<stop stop-color="#7B59F9"/>
<stop offset="1" stop-color="#BF99F8"/>
</linearGradient>
<linearGradient id="paint2_linear_972_8213" x1="22.5572" y1="12.5" x2="43.2165" y2="51.5876" gradientUnits="userSpaceOnUse">
<stop stop-color="#478EFF"/>
<stop offset="1" stop-color="#6196F2"/>
</linearGradient>
<linearGradient id="paint3_linear_972_8213" x1="25.5409" y1="24.5" x2="44.573" y2="54.8971" gradientUnits="userSpaceOnUse">
<stop stop-color="#87B5FF"/>
<stop offset="1" stop-color="#1563E1"/>
</linearGradient>
<linearGradient id="paint4_linear_972_8213" x1="25.5409" y1="24.5" x2="44.573" y2="54.8971" gradientUnits="userSpaceOnUse">
<stop stop-color="#BEB4FB"/>
<stop offset="1" stop-color="#5C59F9"/>
</linearGradient>
<linearGradient id="paint5_linear_972_8213" x1="33" y1="22" x2="33" y2="60" gradientUnits="userSpaceOnUse">
<stop stop-color="#EAF9FE"/>
<stop offset="1" stop-color="#EAF9FE" stop-opacity="0"/>
</linearGradient>
<linearGradient id="paint6_linear_972_8213" x1="31.3688" y1="25.375" x2="31.7905" y2="28.197" gradientUnits="userSpaceOnUse">
<stop stop-color="#7B59F9"/>
<stop offset="1" stop-color="#BF99F8"/>
</linearGradient>
<linearGradient id="paint7_linear_972_8213" x1="29.8032" y1="34.75" x2="34.9496" y2="45.8211" gradientUnits="userSpaceOnUse">
<stop stop-color="#BEB4FB"/>
<stop offset="1" stop-color="#5C59F9"/>
</linearGradient>
<linearGradient id="paint8_linear_972_8213" x1="25.2213" y1="43.75" x2="27.5239" y2="48.3732" gradientUnits="userSpaceOnUse">
<stop stop-color="#BEB4FB"/>
<stop offset="1" stop-color="#5C59F9"/>
</linearGradient>
<linearGradient id="paint9_linear_972_8213" x1="38.2213" y1="43.75" x2="40.5239" y2="48.3732" gradientUnits="userSpaceOnUse">
<stop stop-color="#BEB4FB"/>
<stop offset="1" stop-color="#5C59F9"/>
</linearGradient>
<linearGradient id="paint10_linear_972_8213" x1="25.2213" y1="31.75" x2="27.5239" y2="36.3732" gradientUnits="userSpaceOnUse">
<stop stop-color="#BEB4FB"/>
<stop offset="1" stop-color="#5C59F9"/>
</linearGradient>
<linearGradient id="paint11_linear_972_8213" x1="38.2213" y1="31.75" x2="40.5239" y2="36.3732" gradientUnits="userSpaceOnUse">
<stop stop-color="#BEB4FB"/>
<stop offset="1" stop-color="#5C59F9"/>
</linearGradient>
</defs>
</svg>
