<svg width="58" height="58" viewBox="0 0 58 58" fill="none" xmlns="http://www.w3.org/2000/svg">
<g id="Frame 427318882">
<path id="Rectangle 34624060" d="M14.5643 34.7726C15.307 33.665 16.5529 33.0004 17.8865 33.0004H40.942C42.3166 33.0004 43.5948 33.7062 44.3271 34.8694L55.0702 51.9349C55.9086 53.2668 54.9514 55.0004 53.3777 55.0004H4.7492C3.14936 55.0004 2.19708 53.2153 3.0881 51.8865L14.5643 34.7726Z" fill="url(#paint0_linear_2462_63115)"/>
<path id="Rectangle 34624059" d="M14.558 20.7011C15.3069 19.635 16.5282 19.0004 17.831 19.0004H40.169C41.4718 19.0004 42.6931 19.635 43.442 20.7011L54.7873 36.8507C55.7183 38.176 54.7704 40.0004 53.1508 40.0004H4.84921C3.22963 40.0004 2.28168 38.176 3.21268 36.8507L14.558 20.7011Z" fill="url(#paint1_linear_2462_63115)"/>
<path id="Rectangle 34624058" d="M14.5643 5.77264C15.307 4.66503 16.5529 4.00043 17.8865 4.00043H40.1135C41.4471 4.00043 42.693 4.66504 43.4357 5.77264L54.9119 22.8865C55.8029 24.2153 54.8506 26.0004 53.2508 26.0004H4.7492C3.14936 26.0004 2.19708 24.2153 3.0881 22.8865L14.5643 5.77264Z" fill="url(#paint2_linear_2462_63115)"/>
</g>
<defs>
<linearGradient id="paint0_linear_2462_63115" x1="29" y1="33.0004" x2="29" y2="54.2147" gradientUnits="userSpaceOnUse">
<stop stop-color="#4BBAD4"/>
<stop offset="1" stop-color="white"/>
</linearGradient>
<linearGradient id="paint1_linear_2462_63115" x1="28.0968" y1="19.0004" x2="28.2369" y2="39.2476" gradientUnits="userSpaceOnUse">
<stop stop-color="#4BBAD4"/>
<stop offset="1" stop-color="white"/>
</linearGradient>
<linearGradient id="paint2_linear_2462_63115" x1="29" y1="4.00043" x2="28.4703" y2="22.483" gradientUnits="userSpaceOnUse">
<stop stop-color="white" stop-opacity="0.49"/>
<stop offset="1" stop-color="white"/>
</linearGradient>
</defs>
</svg>
