<svg width="14" height="15" viewBox="0 0 14 15" fill="none" xmlns="http://www.w3.org/2000/svg">
<g id="general/safe">
<path id="Vector" fill-rule="evenodd" clip-rule="evenodd" d="M7.00003 1.57901L7.28944 1.74439C8.24255 2.28903 9.34952 2.63777 10.2351 2.85031C10.6746 2.95578 11.0523 3.02603 11.319 3.06975C11.4522 3.09158 11.5573 3.10674 11.6281 3.11632C11.6635 3.12112 11.6903 3.12451 11.7078 3.12665L11.7268 3.12893L11.7311 3.12943L11.7314 3.12947L12.25 3.18709V8.13248L12.2421 8.1801L11.6667 8.0842C12.2421 8.1801 12.242 8.18042 12.242 8.18075L12.2418 8.18148L12.2415 8.18318L12.2408 8.18755L12.2385 8.20011C12.2367 8.21014 12.2341 8.2235 12.2308 8.24C12.2241 8.27297 12.2142 8.31854 12.2003 8.37524C12.1726 8.48856 12.1291 8.6468 12.0637 8.83818C11.933 9.22033 11.7135 9.73867 11.3554 10.2962C10.6344 11.4189 9.35833 12.6874 7.16128 13.3193L7.00002 13.3657L6.83877 13.3193C4.6417 12.6874 3.36564 11.4189 2.64459 10.2962C2.2865 9.73868 2.06702 9.22033 1.93633 8.83818C1.87088 8.6468 1.82735 8.48856 1.79969 8.37524C1.78584 8.31854 1.77594 8.27298 1.76924 8.24C1.76589 8.2235 1.76333 8.21015 1.76148 8.20011L1.75922 8.18755L1.75846 8.18318L1.75817 8.18148L1.75805 8.18075C1.75799 8.18042 1.75794 8.1801 2.33333 8.0842L1.75794 8.1801L1.75 8.13248V3.18709L2.26891 3.12943L2.27324 3.12893L2.29224 3.12665C2.30967 3.12451 2.33648 3.12111 2.37188 3.11632C2.44271 3.10674 2.54782 3.09158 2.68102 3.06975C2.94769 3.02603 3.32542 2.95578 3.76491 2.85031C4.6505 2.63777 5.75747 2.28903 6.71061 1.74439L7.00003 1.57901ZM2.91667 4.21328V8.02738C2.92057 8.04555 2.92596 8.06942 2.93306 8.09853C2.95325 8.1812 2.98719 8.30557 3.04023 8.46067C3.14652 8.77147 3.32809 9.20154 3.62624 9.66579C4.20063 10.5601 5.21435 11.594 7.00002 12.1499C8.78567 11.594 9.79937 10.5601 10.3738 9.66579C10.6719 9.20154 10.8535 8.77147 10.9598 8.46067C11.0128 8.30557 11.0468 8.1812 11.0669 8.09853C11.074 8.06942 11.0794 8.04555 11.0833 8.02738V4.21328C10.7978 4.16551 10.4098 4.09203 9.96283 3.98476C9.10774 3.77954 8.01211 3.44492 7.00002 2.91554C5.98791 3.44492 4.89228 3.77954 4.03718 3.98476C3.59019 4.09204 3.20225 4.16551 2.91667 4.21328ZM9.98635 6.21145L6.6572 9.54059L4.49472 7.37811L5.31968 6.55315L6.6572 7.89068L9.16139 5.38649L9.98635 6.21145Z" fill="#3382FF"/>
</g>
</svg>
