<svg width="184" height="184" viewBox="0 0 184 184" fill="none" xmlns="http://www.w3.org/2000/svg">
<g id="icon=&#229;&#174;&#182;&#229;&#186;&#173;">
<path id="Polygon 8" opacity="0.2" d="M81.3068 2.18224C86.3866 -0.727415 92.6134 -0.727412 97.6932 2.18224L163.626 39.9479C168.803 42.9132 172 48.4479 172 54.444V129.556C172 135.552 168.803 141.087 163.626 144.052L97.6932 181.818C92.6134 184.727 86.3866 184.727 81.3068 181.818L15.3742 144.052C10.1973 141.087 7 135.552 7 129.556V54.444C7 48.4479 10.1973 42.9132 15.3743 39.9479L81.3068 2.18224Z" fill="#3382FF"/>
<rect id="Rectangle 46" x="61" y="148" width="95" height="17" rx="8" fill="#50D5FF"/>
<rect id="Rectangle 47" opacity="0.5" x="45" y="34" width="72" height="72" rx="8" fill="#3382FF"/>
<path id="Rectangle 43" d="M61 76.4448C61 73.7015 62.4056 71.1496 64.7241 69.6834L104.224 44.704C106.836 43.0526 110.164 43.0526 112.776 44.704L152.276 69.6834C154.594 71.1496 156 73.7015 156 76.4448V133C156 137.418 152.418 141 148 141H69C64.5817 141 61 137.418 61 133V76.4448Z" fill="#3382FF"/>
<ellipse id="Ellipse 14" cx="45" cy="132.5" rx="7" ry="6.5" fill="#50D5FF"/>
<circle id="Ellipse 15" cx="156.5" cy="36.5" r="5.5" fill="#50D5FF"/>
<circle id="Ellipse 16" cx="31" cy="70" r="11" fill="#3382FF"/>
<path id="Rectangle 49" d="M122 130V112C122 104.268 115.732 98 108 98V98C100.268 98 94 104.268 94 112V130" stroke="white" stroke-width="6" stroke-linecap="round"/>
</g>
</svg>
