<svg width="184" height="184" viewBox="0 0 184 184" fill="none" xmlns="http://www.w3.org/2000/svg">
<path opacity="0.2" d="M81.3068 2.18224C86.3866 -0.727415 92.6134 -0.727412 97.6932 2.18224L163.626 39.9479C168.803 42.9132 172 48.4479 172 54.444V129.556C172 135.552 168.803 141.087 163.626 144.052L97.6932 181.818C92.6134 184.727 86.3866 184.727 81.3068 181.818L15.3742 144.052C10.1973 141.087 7 135.552 7 129.556V54.444C7 48.4479 10.1973 42.9132 15.3743 39.9479L81.3068 2.18224Z" fill="#3382FF"/>
<rect opacity="0.5" x="26.4816" y="48.8225" width="75" height="78.9346" rx="8" transform="rotate(-16.114 26.4816 48.8225)" fill="#3382FF"/>
<rect x="65" y="51" width="85" height="110" rx="8" fill="#3382FF"/>
<circle cx="31" cy="70" r="11" fill="#3382FF"/>
<circle cx="37.5" cy="139.5" r="6.5" fill="#50D5FF"/>
<circle cx="128.5" cy="20.5" r="5.5" fill="#50D5FF"/>
<circle cx="139" cy="64" r="27" fill="#50D5FF"/>
<rect x="129" y="54" width="20" height="20" rx="5" fill="white"/>
<rect x="99" y="133" width="16" height="16" rx="8" fill="white"/>
</svg>
