<svg width="184" height="184" viewBox="0 0 184 184" fill="none" xmlns="http://www.w3.org/2000/svg">
<path opacity="0.2" d="M81.3068 2.18224C86.3866 -0.727415 92.6134 -0.727412 97.6932 2.18224L163.626 39.9479C168.803 42.9132 172 48.4479 172 54.444V129.556C172 135.552 168.803 141.087 163.626 144.052L97.6932 181.818C92.6134 184.727 86.3866 184.727 81.3068 181.818L15.3742 144.052C10.1973 141.087 7 135.552 7 129.556V54.444C7 48.4479 10.1973 42.9132 15.3743 39.9479L81.3068 2.18224Z" fill="#3382FF"/>
<rect opacity="0.5" x="35" y="37" width="75" height="72" rx="8" fill="#3382FF"/>
<rect x="68" y="75" width="85" height="84" rx="8" fill="#3382FF"/>
<circle cx="31" cy="70" r="11" fill="#3382FF"/>
<circle cx="44.5" cy="132.5" r="6.5" fill="#50D5FF"/>
<circle cx="156.5" cy="36.5" r="5.5" fill="#50D5FF"/>
<path fill-rule="evenodd" clip-rule="evenodd" d="M102.25 105.375C102.25 101.095 105.72 97.6249 110 97.6249C114.28 97.6249 117.75 101.095 117.75 105.375C117.75 109.655 114.28 113.125 110 113.125C105.72 113.125 102.25 109.655 102.25 105.375ZM110 92.4583C102.866 92.4583 97.0834 98.2412 97.0834 105.375C97.0834 112.509 102.866 118.292 110 118.292C117.134 118.292 122.917 112.509 122.917 105.375C122.917 98.2412 117.134 92.4583 110 92.4583ZM99.6667 120.875C95.9487 120.875 92.421 122.008 89.7775 124.246C87.0931 126.518 85.4584 129.823 85.4584 133.792V137.667C85.4584 139.807 87.1933 141.542 89.3334 141.542H130.667C132.807 141.542 134.542 139.807 134.542 137.667V133.792C134.542 129.823 132.907 126.518 130.223 124.246C127.579 122.008 124.051 120.875 120.333 120.875H99.6667ZM90.625 133.792C90.625 131.34 91.5927 129.478 93.1157 128.189C94.6796 126.865 96.9644 126.042 99.6667 126.042H120.333C123.036 126.042 125.32 126.865 126.884 128.189C128.407 129.478 129.375 131.34 129.375 133.792V136.375H90.625V133.792Z" fill="white"/>
<circle cx="142" cy="75" r="27" fill="#50D5FF"/>
<rect x="129" y="62" width="26" height="26" rx="3" stroke="white" stroke-width="6" stroke-dasharray="12 4"/>
</svg>
