<svg width="184" height="184" viewBox="0 0 184 184" fill="none" xmlns="http://www.w3.org/2000/svg">
<g id="icon=&#229;&#143;&#145;&#231;&#165;&#168;">
<path id="Polygon 8" opacity="0.2" d="M81.3068 2.18224C86.3866 -0.727415 92.6134 -0.727412 97.6932 2.18224L163.626 39.9479C168.803 42.9132 172 48.4479 172 54.444V129.556C172 135.552 168.803 141.087 163.626 144.052L97.6932 181.818C92.6134 184.727 86.3866 184.727 81.3068 181.818L15.3742 144.052C10.1973 141.087 7 135.552 7 129.556V54.444C7 48.4479 10.1973 42.9132 15.3743 39.9479L81.3068 2.18224Z" fill="#3382FF"/>
<rect id="Rectangle 47" opacity="0.5" x="35" y="37" width="75" height="72" rx="8" fill="#3382FF"/>
<rect id="Rectangle 46" x="89" y="29" width="59" height="41" rx="8" fill="#50D5FF"/>
<path id="Rectangle 43" d="M68 83C68 78.5817 71.5817 75 76 75H145C149.418 75 153 78.5817 153 83V158.839C153 160.516 151.06 161.448 149.751 160.4L143.831 155.665C140.909 153.327 136.758 153.327 133.836 155.665L129.664 159.002C126.742 161.339 122.591 161.339 119.669 159.002L115.498 155.665C112.576 153.327 108.424 153.327 105.502 155.665L101.331 159.002C98.4091 161.339 94.2575 161.339 91.3358 159.002L87.1642 155.665C84.2425 153.327 80.0909 153.327 77.1691 155.665L71.2494 160.4C69.9399 161.448 68 160.516 68 158.839V83Z" fill="#3382FF"/>
<rect id="Rectangle 44" x="87" y="92" width="46" height="6" rx="2" fill="white"/>
<rect id="Rectangle 45" x="87" y="106" width="25" height="6" rx="2" fill="white"/>
<circle id="Ellipse 13" cx="11" cy="68" r="11" fill="#3382FF"/>
<ellipse id="Ellipse 14" cx="37" cy="133.5" rx="6" ry="6.5" fill="#50D5FF"/>
<circle id="Ellipse 15" cx="169.5" cy="67.5" r="5.5" fill="#50D5FF"/>
</g>
</svg>
