<svg width="184" height="184" viewBox="0 0 184 184" fill="none" xmlns="http://www.w3.org/2000/svg">
<g id="Component 6">
<path id="Polygon 8" opacity="0.2" d="M81.3068 2.18224C86.3866 -0.727415 92.6134 -0.727412 97.6932 2.18224L163.626 39.9479C168.803 42.9132 172 48.4479 172 54.444V129.556C172 135.552 168.803 141.087 163.626 144.052L97.6932 181.818C92.6134 184.727 86.3866 184.727 81.3068 181.818L15.3742 144.052C10.1973 141.087 7 135.552 7 129.556V54.444C7 48.4479 10.1973 42.9132 15.3743 39.9479L81.3068 2.18224Z" fill="#3382FF"/>
<rect id="Rectangle 47" opacity="0.5" x="28.6472" y="46.7468" width="75.7647" height="51.4118" rx="8" transform="rotate(-22.3703 28.6472 46.7468)" fill="#3382FF"/>
<rect id="Rectangle 46" x="64" y="119" width="83" height="45" rx="8" fill="#50D5FF"/>
<rect id="Rectangle 43" x="55" y="53" width="101" height="60" rx="8" fill="#3382FF"/>
<rect id="Rectangle 44" x="100" y="74" width="41" height="6" rx="2" fill="white"/>
<rect id="Rectangle 45" x="100" y="88" width="25" height="6" rx="2" fill="white"/>
<path id="Vector 12" d="M72 73.381L78.0802 80.1872C78.4707 80.6244 79.1517 80.6334 79.5537 80.2069L92 67" stroke="white" stroke-width="6" stroke-linecap="round"/>
<circle id="Ellipse 13" cx="31" cy="70" r="11" fill="#3382FF"/>
<circle id="Ellipse 14" cx="44.5" cy="132.5" r="6.5" fill="#50D5FF"/>
<circle id="Ellipse 15" cx="156.5" cy="36.5" r="5.5" fill="#50D5FF"/>
</g>
</svg>
