<svg width="184" height="184" viewBox="0 0 184 184" fill="none" xmlns="http://www.w3.org/2000/svg">
<g id="icon=&#232;&#189;&#166;&#232;&#190;&#134;">
<path id="Polygon 8" opacity="0.2" d="M81.3068 2.18224C86.3866 -0.727415 92.6134 -0.727412 97.6932 2.18224L163.626 39.9479C168.803 42.9132 172 48.4479 172 54.444V129.556C172 135.552 168.803 141.087 163.626 144.052L97.6932 181.818C92.6134 184.727 86.3866 184.727 81.3068 181.818L15.3742 144.052C10.1973 141.087 7 135.552 7 129.556V54.444C7 48.4479 10.1973 42.9132 15.3743 39.9479L81.3068 2.18224Z" fill="#3382FF"/>
<rect id="Rectangle 47" opacity="0.5" x="35" y="37" width="75" height="72" rx="8" fill="#3382FF"/>
<circle id="Ellipse 13" cx="31" cy="70" r="11" fill="#3382FF"/>
<circle id="Ellipse 14" cx="37.5" cy="154.5" r="6.5" fill="#50D5FF"/>
<circle id="Ellipse 15" cx="156.5" cy="36.5" r="5.5" fill="#50D5FF"/>
<path id="Subtract" fill-rule="evenodd" clip-rule="evenodd" d="M94.0934 75C90.3521 75 87.1104 77.5931 86.2887 81.2431L82.1128 99.7938C81.9557 100.492 81.4377 101.053 80.7545 101.265L63.6283 106.581C60.2812 107.62 58 110.717 58 114.221V146C58 150.418 61.5817 154 66 154H125.035C125.012 153.67 125 153.336 125 153C125 145.268 131.268 139 139 139C146.732 139 153 145.268 153 153C153 153.336 152.988 153.67 152.965 154H154C158.418 154 162 150.418 162 146V115.688C162 114.9 161.884 114.117 161.655 113.363L151.724 80.6746C150.7 77.3041 147.592 75 144.069 75H94.0934Z" fill="#3382FF"/>
<path id="Rectangle 48" d="M97.652 87.5661C97.8553 86.6511 98.6669 86 99.6043 86H116C117.105 86 118 86.8954 118 88V102C118 103.105 117.105 104 116 104H96.4932C95.2137 104 94.2633 102.815 94.5409 101.566L97.652 87.5661Z" fill="white"/>
<circle id="Ellipse 29" cx="139" cy="153" r="10" fill="#50D5FF"/>
<circle id="Ellipse 26" cx="92" cy="153" r="14" fill="#D6E6FF"/>
<circle id="Ellipse 27" cx="92" cy="153" r="10" fill="#50D5FF"/>
</g>
</svg>
