<svg width="32" height="32" viewBox="0 0 32 32" fill="none" xmlns="http://www.w3.org/2000/svg">
<g id="transform">
<path id="Vector" d="M25.4315 22.0632V9.93685M22.0631 25.4316H10.6105M6.56837 21.7263V10.2737M9.93679 6.56843H21.7263M4.54732 9.93685H8.58942C9.33356 9.93685 9.93679 9.33362 9.93679 8.58949V4.54738C9.93679 3.80325 9.33356 3.20001 8.58942 3.20001H4.54732C3.80319 3.20001 3.19995 3.80325 3.19995 4.54738V8.58949C3.19995 9.33362 3.80319 9.93685 4.54732 9.93685ZM23.4105 9.93685H27.4526C28.1967 9.93685 28.7999 9.33362 28.7999 8.58949V4.54738C28.7999 3.80325 28.1967 3.20001 27.4526 3.20001H23.4105C22.6663 3.20001 22.0631 3.80325 22.0631 4.54738V8.58949C22.0631 9.33362 22.6663 9.93685 23.4105 9.93685ZM4.54732 28.8H8.58942C9.33356 28.8 9.93679 28.1968 9.93679 27.4526V23.4105C9.93679 22.6664 9.33356 22.0632 8.58942 22.0632H4.54732C3.80319 22.0632 3.19995 22.6664 3.19995 23.4105V27.4526C3.19995 28.1968 3.80319 28.8 4.54732 28.8ZM23.4105 28.8H27.4526C28.1967 28.8 28.7999 28.1968 28.7999 27.4526V23.4105C28.7999 22.6664 28.1967 22.0632 27.4526 22.0632H23.4105C22.6663 22.0632 22.0631 22.6664 22.0631 23.4105V27.4526C22.0631 28.1968 22.6663 28.8 23.4105 28.8Z" stroke="#4E5969" stroke-width="2" stroke-linecap="round"/>
</g>
</svg>
