<svg width="240" height="39" viewBox="0 0 240 39" fill="none" xmlns="http://www.w3.org/2000/svg">
<path id="Union" fill-rule="evenodd" clip-rule="evenodd" d="M41.668 0H51.087V11.0394C51.1673 11.0105 51.2374 10.9887 51.2996 10.9693C51.4049 10.9365 51.4878 10.9107 51.5604 10.8689C58.4016 6.94337 70.1674 9.65192 72.3959 20.4688C73.4553 25.617 72.5662 30.4184 68.9233 34.4451C66.7814 36.8126 64.0449 38.1423 60.9216 38.6626C57.2845 39.2668 53.8408 38.784 50.7175 36.697C50.4761 36.5358 50.242 36.3658 49.9711 36.1689C49.863 36.0904 49.749 36.0076 49.6264 35.9194C49.5484 36.0955 49.4746 36.268 49.4022 36.4372L49.402 36.4375L49.402 36.4377L49.4019 36.4377L49.4019 36.4378L49.4018 36.4379L49.4017 36.4381C49.2331 36.8322 49.0722 37.2081 48.8845 37.5699C48.7921 37.7492 48.567 37.9804 48.4024 37.9833C46.6711 38.0058 44.9379 38.0038 43.1868 38.0018H43.1865H43.1862H43.1859H43.1856H43.1853C42.683 38.0012 42.1793 38.0006 41.6738 38.0006C41.668 25.3135 41.668 12.69 41.668 0ZM50.5154 24.0041C50.4981 27.6579 53.1509 30.3953 56.7476 30.4271C60.3616 30.4618 63.1126 27.7099 63.1212 24.0561C63.1299 20.3907 60.4021 17.6157 56.8053 17.6244C53.2144 17.633 50.5328 20.3532 50.5154 24.0041ZM210.944 1.9917L210.944 1.99205C210.957 2.10186 210.967 2.19129 210.967 2.28072C210.965 4.48561 210.967 6.69049 210.97 8.8953V8.91476V8.93428V8.95385V8.97348V8.99316V8.99328V8.99339V8.99351V8.99362V8.99374C210.976 14.2513 210.982 19.5085 210.921 24.7643C210.849 30.7653 207.192 35.8558 201.522 37.8099C196.364 39.5876 191.24 39.391 186.411 36.6854C182.425 34.4509 180.199 30.9272 179.541 26.4235C179.4 25.4552 179.365 24.4637 179.362 23.4808C179.351 18.089 179.352 12.6989 179.353 7.30782V7.30759V7.30735V7.30712V7.30688V7.28648C179.353 5.74229 179.353 4.19803 179.353 2.65362V1.77486H189.465V2.71143C189.465 4.42148 189.465 6.13171 189.464 7.84204C189.463 12.9779 189.462 18.1145 189.471 23.2496C189.474 24.4781 189.612 25.6835 190.181 26.8109C191.266 28.9586 193.74 30.0513 196.445 29.5454C198.757 29.1147 200.541 27.1693 200.734 24.8366C200.807 23.978 200.847 23.1108 200.85 22.2494C200.857 17.0402 200.856 11.831 200.856 6.62184L200.856 2.7201V1.77197C204.253 1.77486 207.558 1.77486 210.921 1.77486H210.921C210.929 1.8565 210.937 1.92725 210.944 1.99111L210.944 1.9917ZM36.5752 38.0041C37.2009 38.0038 37.8293 38.0035 38.4611 38.0035C38.4379 37.9321 38.4178 37.8681 38.3994 37.8095L38.399 37.8084L38.3988 37.8078L38.3988 37.8077L38.3987 37.8076C38.3534 37.6633 38.3185 37.5523 38.2735 37.4456L35.8593 31.4343C31.9556 21.7142 28.0523 11.9951 24.1609 2.27205C23.9848 1.82978 23.7567 1.72572 23.318 1.72861C20.5295 1.74884 17.7439 1.75751 14.9555 1.72283C14.3753 1.71415 14.1328 1.90205 13.925 2.43104C9.38146 14.037 4.81774 25.6373 0.254021 37.2346C0.191863 37.3952 0.139455 37.5614 0.0813172 37.7458L0.0812909 37.7459C0.0557391 37.827 0.0290801 37.9115 0 38.0006C0.613405 38.0006 1.22373 38.0009 1.83151 38.0012C4.65306 38.0024 7.41994 38.0037 10.1868 37.9775C10.3889 37.9775 10.6891 37.6711 10.7728 37.4427C11.3472 35.8673 11.8928 34.2803 12.4066 32.6847C12.5481 32.2453 12.7415 32.0834 13.212 32.0863C17.1291 32.1037 21.0462 32.1037 24.9633 32.0863C25.431 32.0834 25.633 32.2424 25.7716 32.6789C26.2854 34.2775 26.8223 35.8673 27.391 37.4456C27.4718 37.674 27.7778 37.9775 27.9798 37.9804C30.8251 38.0066 33.6704 38.0053 36.5752 38.0041ZM22.6594 22.9834L23.1332 24.3105H15.0421L15.5849 22.7765C16.7285 19.5449 17.855 16.3613 18.9794 13.1756L19.1555 13.167C20.3131 16.4127 21.4729 19.6607 22.6547 22.9703L22.6547 22.9703L22.6577 22.9788L22.6594 22.9834ZM90.9597 9.13739C95.9939 9.21544 100.102 10.6001 103.311 14.0833C105.502 16.4594 106.657 19.3096 106.943 22.5183C107.237 25.8396 106.66 28.9818 104.89 31.8378C102.368 35.9107 98.5919 38.0613 93.9271 38.7146C90.1457 39.2436 86.4768 38.784 83.1197 36.8733C77.6986 33.7889 75.323 28.9644 75.756 22.868C76.264 15.7252 81.0702 10.6348 88.1308 9.41778C88.8967 9.28232 89.6746 9.22949 90.3044 9.18673C90.5481 9.17018 90.7696 9.15513 90.9597 9.13739ZM91.3494 30.2999C94.8884 30.3086 97.469 27.7041 97.4314 24.0474C97.3939 20.2549 94.9663 17.7631 91.3205 17.7313C87.7758 17.7024 85.276 20.3763 85.2789 24.0359C85.2846 27.707 87.7873 30.2913 91.3494 30.2999ZM120.778 11.0076V10.1173C120.649 10.1101 120.534 10.1013 120.426 10.0932L120.426 10.0932C120.275 10.0818 120.139 10.0715 120.005 10.0682C119.228 10.0673 118.451 10.069 117.675 10.0706H117.674H117.674H117.674C115.808 10.0746 113.942 10.0785 112.075 10.0479C111.351 10.0364 111.203 10.285 111.206 10.9527C111.22 13.5434 111.22 16.1333 111.22 18.7232V18.7287C111.22 21.0121 111.22 23.2954 111.229 25.5795C111.232 26.5131 111.293 27.4555 111.437 28.3747C112.116 32.7136 114.457 35.8182 118.478 37.6133C121.486 38.9574 124.658 39.1569 127.865 38.6799C130.679 38.2608 133.211 37.1566 135.255 35.1042C137.858 32.4881 138.762 29.2275 138.773 25.6517C138.783 22.2438 138.781 18.8359 138.778 15.4279C138.777 13.9131 138.776 12.3982 138.776 10.8833V10.1202H129.184V11.0192C129.184 12.2648 129.185 13.5103 129.186 14.7556V14.7559V14.7562C129.189 18.2415 129.192 21.7262 129.173 25.2123C129.17 25.9726 129.089 26.7531 128.89 27.4844C128.468 29.0396 127.406 30.0137 125.81 30.2421C124.089 30.4849 122.539 30.1091 121.535 28.5222C120.911 27.5364 120.778 26.4149 120.778 25.2731V11.0076ZM215.615 28.9009L215.615 28.9009C215.795 28.8902 215.957 28.8806 216.12 28.8806C216.916 28.8797 217.711 28.8802 218.506 28.8807H218.509C220.261 28.8818 222.012 28.8829 223.764 28.869C224.292 28.8661 224.563 28.9413 224.656 29.5715C224.835 30.7913 225.646 31.5053 226.844 31.751C228.102 32.0083 229.312 31.9534 230.213 30.8896C230.995 29.9617 230.726 28.6031 229.543 28.1435C228.705 27.8167 227.821 27.6109 226.936 27.405L226.936 27.405C226.467 27.2958 225.998 27.1867 225.536 27.0595C225.009 26.9144 224.474 26.7834 223.939 26.6523C222.631 26.3317 221.321 26.0106 220.104 25.4812C216.481 23.9058 215.367 20.6393 215.817 17.1185C216.23 13.9012 218.115 11.6956 221.022 10.47C225.429 8.61128 229.912 8.57948 234.3 10.5625C237.513 12.0136 239.507 15.1933 239.444 18.5407H235.013H230.648C230.628 18.5125 230.609 18.49 230.592 18.4707C230.564 18.4365 230.543 18.4123 230.536 18.3846C230.06 16.286 228.325 15.3581 226.287 16.1125C225.45 16.4247 224.95 17.0694 224.913 17.873C224.869 18.7517 225.354 19.3385 226.108 19.5611C226.982 19.821 227.872 20.0249 228.762 20.229L228.762 20.229C229.318 20.3564 229.874 20.4838 230.426 20.6249C230.889 20.7435 231.356 20.8521 231.823 20.9608C233.041 21.244 234.26 21.5276 235.406 21.9893C239.011 23.4462 240.14 26.2588 239.987 29.6871C239.816 33.5432 237.77 36.2171 234.268 37.6133C229.373 39.5645 224.439 39.5732 219.772 36.8906C216.801 35.1765 215.471 32.3841 215.358 28.9153C215.449 28.9108 215.533 28.9058 215.615 28.9009ZM141.775 17.4047H146.859V18.5031C146.865 19.6044 146.864 20.7059 146.862 21.8075C146.859 24.2855 146.856 26.7637 146.94 29.239C147.101 33.9942 150.45 37.5034 155.184 37.8503C157.026 37.9867 158.877 37.9811 160.729 37.9756C161.546 37.9731 162.363 37.9707 163.18 37.9804C163.204 37.9804 163.229 37.9614 163.271 37.9295C163.295 37.9116 163.324 37.8897 163.361 37.8648C163.361 37.4367 163.362 37.0075 163.362 36.5773C163.363 34.4216 163.364 32.2413 163.335 30.0629C163.335 29.9155 162.975 29.6611 162.773 29.6524C162.25 29.6256 161.726 29.6224 161.203 29.6192C160.596 29.6155 159.991 29.6118 159.387 29.5715C157.531 29.4472 156.474 28.3863 156.436 26.5074C156.4 24.6881 156.404 22.8688 156.408 21.0495C156.41 20.0099 156.413 18.9704 156.408 17.9308C156.408 17.5203 156.561 17.3873 156.959 17.3931C157.714 17.4055 158.47 17.4031 159.225 17.4008C159.528 17.3998 159.83 17.3989 160.131 17.3989H163.154V10.0711H162.322C161.831 10.0711 161.34 10.0693 160.848 10.0675C159.56 10.0629 158.272 10.0583 156.985 10.0855C156.361 10.0971 156.145 9.92942 156.156 9.28191C156.184 7.552 156.177 5.82028 156.17 4.08961C156.168 3.63398 156.166 3.17843 156.165 2.723C156.165 2.53547 156.148 2.34793 156.132 2.17973C156.125 2.10163 156.118 2.0277 156.113 1.95987C154.855 1.65346 154.029 2.03213 153.201 2.9398C149.702 6.77571 146.157 10.5683 142.532 14.2828C141.667 15.1664 141.711 16.0571 141.76 17.0619C141.765 17.1747 141.771 17.2889 141.775 17.4047Z" fill="#86909C"/>
</svg>
