<svg width="13" height="12" viewBox="0 0 13 12" fill="none" xmlns="http://www.w3.org/2000/svg">
    <g id="user-profile-x">
    <path id="Icon" d="M1.25 10.7999C1.24995 11.2141 1.5857 11.55 1.99992 11.55C2.41413 11.5501 2.74995 11.2143 2.75 10.8001L1.25 10.7999ZM2.0002 8.99981L2.7502 8.99989L2.0002 8.99981ZM7.4 7.95001C7.81421 7.95001 8.15 7.61422 8.15 7.20001C8.15 6.7858 7.81421 6.45001 7.4 6.45001V7.95001ZM11.0697 9.23034C11.3626 9.52323 11.8374 9.52323 12.1303 9.23034C12.4232 8.93745 12.4232 8.46257 12.1303 8.16968L11.0697 9.23034ZM10.2211 6.26049C9.92825 5.9676 9.45338 5.9676 9.16048 6.26049C8.86759 6.55339 8.86759 7.02826 9.16048 7.32115L10.2211 6.26049ZM9.16053 8.16963C8.86764 8.46252 8.86764 8.9374 9.16053 9.23029C9.45342 9.52318 9.9283 9.52318 10.2212 9.23029L9.16053 8.16963ZM12.1304 7.3211C12.4233 7.02821 12.4233 6.55334 12.1304 6.26044C11.8375 5.96755 11.3626 5.96755 11.0697 6.26044L12.1304 7.3211ZM7.25 3.00001C7.25 3.57991 6.7799 4.05001 6.2 4.05001V5.55001C7.60833 5.55001 8.75 4.40834 8.75 3.00001H7.25ZM6.2 4.05001C5.6201 4.05001 5.15 3.57991 5.15 3.00001H3.65C3.65 4.40834 4.79167 5.55001 6.2 5.55001V4.05001ZM5.15 3.00001C5.15 2.42011 5.6201 1.95001 6.2 1.95001V0.450012C4.79167 0.450012 3.65 1.59169 3.65 3.00001H5.15ZM6.2 1.95001C6.7799 1.95001 7.25 2.42011 7.25 3.00001H8.75C8.75 1.59169 7.60833 0.450012 6.2 0.450012V1.95001ZM2.75 10.8001L2.7502 8.99989L1.2502 8.99972L1.25 10.7999L2.75 10.8001ZM3.8002 6.45001C2.39199 6.45001 1.25036 7.59151 1.2502 8.99972L2.7502 8.99989C2.75027 8.42004 3.22035 7.95001 3.8002 7.95001V6.45001ZM3.8002 7.95001H7.4V6.45001H3.8002V7.95001ZM12.1303 8.16968L11.1757 7.21509L10.1151 8.27575L11.0697 9.23034L12.1303 8.16968ZM11.1757 7.21509L10.2211 6.26049L9.16048 7.32115L10.1151 8.27575L11.1757 7.21509ZM10.2212 9.23029L11.1757 8.27575L10.1151 7.21509L9.16053 8.16963L10.2212 9.23029ZM11.1757 8.27575L12.1304 7.3211L11.0697 6.26044L10.1151 7.21509L11.1757 8.27575Z" fill="#F53F3F"/>
    </g>
    </svg>
    