<svg width="24" height="20" viewBox="0 0 24 20" fill="none" xmlns="http://www.w3.org/2000/svg">
<path d="M19.95 8.8763C20.7188 8.0831 21.1688 7.06327 21.1688 5.94901C21.1688 3.55052 19.05 1.58641 16.4625 1.58641C16.3875 1.58641 16.3125 1.60529 16.2375 1.60529C16.3125 1.69972 16.425 1.83193 16.5 1.94524C16.875 2.41738 17.1375 2.88953 17.325 3.4561C18.45 3.79604 19.7062 4.7781 19.7062 5.93013C19.7062 6.94996 19.05 7.89424 18.0562 8.30972C17.6812 8.44192 17.4188 8.74411 17.4188 9.12182C17.4188 9.49953 17.7 9.82058 18.0938 9.93389L18.2812 9.97168C20.7938 10.5571 22.5375 12.6157 22.5375 15.033V15.7129H21.1875C21.3188 16.2795 21.375 16.6572 21.375 17.2616H23.0625C23.5875 17.2616 24 16.865 24 16.3928V15.0519C24 12.389 22.4063 10.0472 19.95 8.8763ZM5.8875 9.99056L6.075 9.95277C6.46875 9.83946 6.75 9.51842 6.75 9.1407C6.75 8.78187 6.4875 8.4608 6.1125 8.3286C5.1 7.91312 4.4625 6.96884 4.4625 5.94901C4.4625 4.79698 5.55 3.81492 6.675 3.47498C6.88125 2.90841 7.125 2.36071 7.51875 1.90745C7.59375 1.81303 7.70625 1.7186 7.7625 1.62417C7.6875 1.62417 7.6125 1.60529 7.5375 1.60529C4.95 1.60529 2.83125 3.55051 2.83125 5.96789C2.83125 7.06326 3.28125 8.10198 4.05 8.89518C1.59375 10.0472 0 12.389 0 15.0519V16.3928C0 16.8839 0.4125 17.2616 0.9375 17.2616H2.625C2.625 16.6572 2.7 16.2795 2.8125 15.7129H1.63125V15.033C1.63125 12.6534 3.375 10.576 5.8875 9.99056ZM15.2062 9.32956C16.4062 8.36639 17.175 6.89328 17.175 5.23134C17.175 2.34182 14.8688 0 12.0375 0C9.1875 0 6.88125 2.34183 6.88125 5.21246C6.88125 6.8744 7.65 8.36639 8.85 9.31068C5.68125 10.5949 3.45 13.7299 3.45 17.3938V19.1313C3.45 19.6034 3.825 20 4.3125 20H19.7437C20.2125 20 20.6063 19.6034 20.6063 19.1313V17.3938C20.6063 13.7488 18.3562 10.6138 15.2062 9.32956ZM8.625 5.21246C8.625 3.305 10.1625 1.75638 12.0375 1.75638C13.9125 1.75638 15.45 3.305 15.45 5.21246C15.45 7.11992 13.9125 8.66856 12.0375 8.66856C10.1438 8.66856 8.625 7.11992 8.625 5.21246ZM18.7125 18.2436H5.34375V17.3938C5.34375 13.6544 8.34375 10.5949 12.0375 10.5949C15.7313 10.5949 18.7125 13.6355 18.7125 17.3938V18.2436Z" fill="#4086FF"/>
</svg>
